<svg width="77" height="78" fill="none" xmlns="http://www.w3.org/2000/svg"><path d="M16.167 13.749c-8.467 3.383-13.64 5.534-13.79 5.73-.572.646-.437.842 3.64 5.323l3.91 4.302-.347.406a606.55 606.55 0 01-3.79 4.21c-1.91 2.076-3.519 3.956-3.609 4.166-.316.828-.015 1.023 4.241 2.722l3.955 1.58v9.128c0 8.542.015 9.159.271 9.385.21.18 26.424 8.662 27.627 8.933.466.105 27.747-8.618 28.123-8.993.286-.286.3-.542.376-9.4l.075-9.114 3.76-1.504c2.075-.827 3.88-1.609 4.03-1.729.421-.391.316-1.023-.3-1.73-.767-.872-6.302-6.993-6.843-7.564l-.421-.466 2.737-2.993c5.053-5.58 5.083-5.61 5.083-6.046 0-.21-.105-.511-.24-.662-.136-.15-6.362-2.722-13.837-5.7-10.03-4.015-13.67-5.413-13.926-5.338-.195.06-2.15 1.91-4.361 4.105l-4.03 4.016-4.016-4.016c-2.481-2.466-4.18-4.045-4.406-4.09-.271-.06-4.241 1.459-13.912 5.339zm20.378 3.94c-.045.03-5.654 2.346-12.467 5.128l-12.407 5.068-.406-.42c-.24-.226-1.745-1.88-3.354-3.655-2.15-2.361-2.888-3.264-2.752-3.369.105-.075 5.64-2.316 12.302-4.978l12.091-4.842 3.534 3.504c1.94 1.925 3.49 3.534 3.46 3.564zm35.372 2.797c.15.136-6.497 7.414-6.707 7.34-1.293-.512-24.694-10.107-24.754-10.137-.03-.03 1.518-1.64 3.444-3.564l3.504-3.505 12.211 4.873c6.708 2.692 12.242 4.933 12.302 4.993zM50.502 24.05c6.587 2.692 12.076 4.948 12.181 5.008.105.06-5.158 2.286-11.986 5.084L38.516 39.12l-6.588-2.692c-3.624-1.49-9.098-3.73-12.181-4.993-3.986-1.625-5.52-2.316-5.34-2.407.317-.135 24.003-9.865 24.063-9.865.03-.015 5.444 2.195 12.032 4.887zM24.288 35.54c6.693 2.737 12.212 5.023 12.242 5.053.106.09-6.782 6.978-6.978 6.978-.18 0-24.318-9.624-24.468-9.76-.06-.06 1.383-1.744 3.218-3.76 2.316-2.541 3.399-3.624 3.564-3.579.136.045 5.715 2.316 12.422 5.068zm44.441-1.504c1.775 1.955 3.203 3.64 3.173 3.7-.06.135-24.183 9.836-24.453 9.836-.24 0-7.084-6.949-6.918-7.009 2.737-1.173 24.709-10.121 24.814-10.121.09 0 1.61 1.624 3.384 3.594zM47.043 49.978c.105 0 4.075-1.564 8.828-3.46 4.752-1.91 8.677-3.458 8.722-3.458.136 0 .075 16.077-.06 16.152-.165.105-24.679 7.91-24.845 7.91-.075 0-.135-5.504-.135-12.211V42.699l3.655 3.64c2.015 2 3.73 3.639 3.835 3.639zm-9.655 17.1c-.046.044-5.67-1.715-12.528-3.896l-12.452-3.955-.045-8.091c-.015-4.437.015-8.076.09-8.076.06 0 4 1.564 8.753 3.459 7.58 3.038 8.692 3.444 9.023 3.308.21-.09 1.91-1.684 3.76-3.534l3.384-3.384.045 12.062c.015 6.617 0 12.076-.03 12.106z" fill="#0073B9"/></svg>