<svg width="54" height="54" fill="none" xmlns="http://www.w3.org/2000/svg"><path d="M4.872 27.023V49.13h9.835l-.01-2.445-.013-2.45-2.445-.013-2.45-.01V29.46h4.918v-4.871H9.789V9.835h4.918V4.918H4.872v22.105zM19.624 27.023V49.13h4.872V29.505l.105-.023c.054-.014 1.156-.018 2.445-.014l2.345.014.013 9.821.01 9.826h4.917V4.918H19.624v22.105zm9.79-9.811v7.376l-2.446-.01-2.45-.013-.013-7.367-.01-7.363h4.918v7.377zM39.248 27.023V49.13h9.835V44.21h-4.918V9.836h4.918V4.918h-9.835v22.105z" fill="#0073B9"/></svg>