<svg width="30" height="30" fill="none" xmlns="http://www.w3.org/2000/svg"><path fill-rule="evenodd" clip-rule="evenodd" d="M28.031 6.907L16.194 16.71a1.875 1.875 0 01-2.392 0L1.97 6.907a1.875 1.875 0 00-.096.593v15a1.875 1.875 0 001.875 1.875h22.5a1.875 1.875 0 001.875-1.875v-15c0-.201-.03-.401-.094-.593zM3.75 3.75h22.5A3.75 3.75 0 0130 7.5v15a3.75 3.75 0 01-3.75 3.75H3.75A3.75 3.75 0 010 22.5v-15a3.75 3.75 0 013.75-3.75zm-.394 1.875l10.455 8.63a1.875 1.875 0 002.381.006l10.56-8.636H3.357z" fill="#0073B9"/></svg>