<svg width="141" height="141" fill="none" xmlns="http://www.w3.org/2000/svg"><path d="M32.797 91.703c7.447.293 73.228 0 73.403 0 4.433 0 8.011 3.637 8.011 8.076 0 4.438-3.597 8.056-8.011 8.056H32.797c-4.414 0-8.011-3.637-8.011-8.056 0-4.42 3.597-8.076 8.011-8.076zm4.764-19.554a3.363 3.363 0 001.517-2.542l1.088-12.378h3.967l1.05 12.124a3.408 3.408 0 001.653 2.659c1.458.84 2.489 2.366 2.586 4.185H35.169c.097-1.663.953-3.168 2.372-4.068m26.581 0c.875-.567 1.458-1.525 1.517-2.542l1.089-12.377h3.947l1.05 12.123c.194 2.444 1.925 2.444 3.014 3.813a5.018 5.018 0 011.205 3.031H61.75c.097-1.662.953-3.168 2.353-4.067m26.58 0c.875-.567 1.458-1.525 1.517-2.542l1.07-12.378h3.946l1.07 12.124c.155 2.327 1.944 2.522 3.014 3.813a4.882 4.882 0 011.186 3.03H88.291c.098-1.662.953-3.167 2.353-4.067m-58.858 38.717v7.196c0 .841.68 1.525 1.517 1.525H41.1c.855 0 1.516-.665 1.516-1.525v-7.137H53.33v7.137a1.51 1.51 0 001.517 1.525h7.797c.856 0 1.517-.665 1.517-1.525v-7.137h10.714v7.137c0 .841.68 1.525 1.516 1.525h7.798a1.51 1.51 0 001.516-1.525v-7.137H96.42v7.137c0 .841.68 1.525 1.517 1.525h7.797a1.51 1.51 0 001.517-1.525v-7.196c5.619-.489 10.033-5.26 10.033-11.048 0-6.14-4.958-11.106-11.044-11.106h-.72c.156-.705.059-.372.097-12.163 0-3.031-1.633-5.69-4.102-7.118-.078-.039-.117-.137-.136-.254l-1.07-12.162c.972-.43 1.633-1.428 1.633-2.562 0-1.584-1.263-2.855-2.819-2.855h-7.35a2.838 2.838 0 00-2.839 2.855c0 1.056.564 1.975 1.439 2.444l-1.108 12.534c0 .41-3.89 2.034-3.89 7.138.02 11.869-.058 11.36.079 12.162h-6.475c.155-.704.058-.332.097-12.162 0-1.936-.68-3.833-1.925-5.28-1.478-1.78-2.314-1.623-2.314-2.092l-1.07-12.183a2.763 2.763 0 001.634-2.541 2.838 2.838 0 00-2.84-2.855h-7.35c-1.555 0-2.819 1.27-2.819 2.855 0 1.055.564 1.994 1.44 2.444l-1.109 12.534c0 .41-3.889 2.014-3.889 7.137.02 11.889-.058 11.36.078 12.163h-6.475c.155-.704.058-.372.097-12.163 0-5.26-4.2-6.863-4.258-7.372l-1.05-12.182a2.784 2.784 0 001.633-2.542 2.85 2.85 0 00-2.839-2.855h-7.35c-1.555 0-2.82 1.271-2.82 2.855 0 1.056.565 1.995 1.44 2.444L36.18 69.411a.266.266 0 01-.116.215 8.17 8.17 0 00-3.792 6.923c.039 12.025-.058 11.478.097 12.201-5.833.274-10.48 5.143-10.48 11.087 0 5.945 4.414 10.559 10.033 11.048" fill="#106EB4"/><path d="M79.132 93.541c3.423 0 6.203 2.796 6.203 6.238 0 3.441-2.78 6.237-6.203 6.237-3.422 0-6.202-2.796-6.202-6.237 0-3.442 2.78-6.238 6.202-6.238zM59.863 106.016c3.422 0 6.203-2.815 6.203-6.237s-2.8-6.238-6.203-6.238c-3.403 0-6.203 2.796-6.203 6.238 0 3.441 2.78 6.237 6.203 6.237zM40.593 93.541c3.423 0 6.203 2.796 6.203 6.238 0 3.441-2.78 6.237-6.203 6.237-3.422 0-6.202-2.796-6.202-6.237 0-3.442 2.78-6.238 6.202-6.238zM98.402 106.016c3.422 0 6.183-2.815 6.183-6.237s-2.78-6.238-6.183-6.238-6.203 2.796-6.203 6.238c0 3.441 2.78 6.237 6.203 6.237zM36.298 25.337h22.847a10.336 10.336 0 003.733 6.551l-8.983 7.88a1.514 1.514 0 00-.389 1.76l4.686 10.481c.817 1.819 3.578.606 2.761-1.251l-4.219-9.445 8.925-7.822c2.392.92 4.958.94 7.389 0l8.925 7.822-4.22 9.445c-.816 1.838 1.945 3.07 2.762 1.251L85.2 41.53a1.507 1.507 0 00-.39-1.76l-8.983-7.88a10.423 10.423 0 003.734-6.552h25.064c.836 0 1.516-.684 1.516-1.525 0-.84-.68-1.525-1.516-1.525H36.298c-.836 0-1.517.684-1.517 1.525 0 .841.68 1.525 1.517 1.525z" fill="#106EB4"/></svg>