<svg width="141" height="141" fill="none" xmlns="http://www.w3.org/2000/svg"><path d="M34.8 69.02c0-5.044 1.477-9.972 4.258-14.176l1.438-2.17a65.187 65.187 0 00-7.02.977c-10.13 2.034-17.421 10.99-17.421 21.373v6.98h6.941c4.803 0 9.45-1.622 13.242-4.575a26.245 26.245 0 01-1.439-8.408z" fill="#106EB4"/><path d="M44.89 84.43l4.9 4.927 4.9-4.927c7.292-7.333 8.44-18.83 2.703-27.474l-2.975-4.497h-9.255l-2.975 4.497C36.45 65.6 37.578 77.097 44.89 84.43zM48.176 48.664h2.314a26.88 26.88 0 001.673-18.85h-6.884a37.084 37.084 0 012.897 18.85z" fill="#106EB4"/><path d="M64.783 69.02c0 2.856-.486 5.691-1.42 8.39a21.67 21.67 0 0013.243 4.575h6.941v-6.98c0-10.384-7.291-19.32-17.403-21.353a66.235 66.235 0 00-7.039-.978l1.44 2.17a25.468 25.468 0 014.258 14.157M89.4 41.137h2.313a26.88 26.88 0 001.672-18.85h-6.883a37.084 37.084 0 012.897 18.85zM77.012 54.513a26.15 26.15 0 013.267-7.196l1.439-2.17a65.135 65.135 0 00-7.02.977 21.338 21.338 0 00-8.477 3.735c.214.04.408.059.622.117a25.445 25.445 0 0110.17 4.537zM87.279 75.023v3.031l3.753 3.774 4.9-4.928c7.291-7.332 8.439-18.85 2.703-27.473l-2.976-4.497h-9.255l-2.995 4.497a22.095 22.095 0 00-3.208 7.939 25.38 25.38 0 017.078 17.657zM88.68 84.78l-1.4-1.407v.489a1.872 1.872 0 01-1.867 1.877H77.83c.058.704.097 1.408.097 2.112a25.31 25.31 0 01-2.275 10.5l2.275 2.288 4.9-4.927a21.78 21.78 0 005.873-10.95l-.02.019zM91.013 89.963c-1.264 3.168-3.169 6.023-5.56 8.447l-3.248 3.246a21.755 21.755 0 003.889 5.397l4.92 4.928 4.9-4.928a21.27 21.27 0 003.888-5.397l-3.228-3.246a25.302 25.302 0 01-5.56-8.447zM103.068 73.459a25.581 25.581 0 01-4.492 6.1l-5.21 5.241a21.78 21.78 0 005.871 10.95l4.92 4.928 4.9-4.927a21.495 21.495 0 006.203-17.658 25.317 25.317 0 01-12.192-4.615" fill="#106EB4"/><path d="M118.409 52.088a21.469 21.469 0 00-11.064-5.964 65.836 65.836 0 00-7.058-.977l1.439 2.17a25.627 25.627 0 012.839 22.565 21.657 21.657 0 0013.222 4.576h6.922v-6.98c0-5.77-2.275-11.323-6.339-15.39h.039zM49.79 97.492a25.791 25.791 0 01-5.56 8.447l-3.228 3.246a21.757 21.757 0 003.889 5.397l4.9 4.928 4.9-4.928a21.342 21.342 0 003.908-5.397l-3.247-3.246a25.296 25.296 0 01-5.561-8.447zM61.828 80.988a25.58 25.58 0 01-4.492 6.101l-5.211 5.24a21.782 21.782 0 005.872 10.951l4.9 4.927 4.9-4.927a21.571 21.571 0 006.222-17.657 25.319 25.319 0 01-12.191-4.615M47.439 92.33l-5.211-5.24a25.872 25.872 0 01-4.492-6.082 25.123 25.123 0 01-12.192 4.615 21.8 21.8 0 00-.136 2.248c0 5.769 2.275 11.322 6.34 15.389l4.9 4.928 4.9-4.928a21.78 21.78 0 005.871-10.95" fill="#106EB4"/></svg>