<svg width="141" height="141" fill="none" xmlns="http://www.w3.org/2000/svg"><path d="M89.888 100.369l-2.353-5.103-2.353 5.103a1.738 1.738 0 01-.875.87l-5.133 2.34 5.133 2.339c.389.174.7.483.875.87l2.353 5.103 2.353-5.103c.175-.387.486-.696.875-.87l5.133-2.339-5.133-2.34a1.738 1.738 0 01-.875-.87z" fill="#106EB4"/><path d="M114.115 89.756l-.467.29a17.063 17.063 0 01-19.075 0 13.463 13.463 0 00-15.322 0 16.122 16.122 0 01-9.528 2.92 16.122 16.122 0 01-9.528-2.92 12.504 12.504 0 00-7.66-2.378 12.573 12.573 0 00-7.642 2.378 16.139 16.139 0 01-9.548 2.92 16.122 16.122 0 01-9.527-2.92l-.448-.29c-.797-.56-1.01-1.662-.447-2.455a1.783 1.783 0 012.295-.541l.466.29a12.63 12.63 0 007.661 2.377 12.629 12.629 0 007.661-2.378 16.122 16.122 0 019.528-2.919 16.122 16.122 0 019.528 2.92 12.504 12.504 0 007.661 2.377 12.63 12.63 0 007.661-2.378 17.063 17.063 0 0119.075 0 13.462 13.462 0 0015.322 0l.487-.29a1.8 1.8 0 012.45.58 1.778 1.778 0 01-.584 2.436l-.019-.019zm0 15.93l-.428.271a16.128 16.128 0 01-9.567 2.938 15.229 15.229 0 01-7.525-1.74l-3.772 1.721-2.43 5.258c-.74 1.585-2.626 2.281-4.2 1.547a3.179 3.179 0 01-1.556-1.547l-2.43-5.258-4.414-2.011a15.348 15.348 0 01-8.07 2.049 16.119 16.119 0 01-9.528-2.919 12.61 12.61 0 00-7.66-2.397 12.616 12.616 0 00-7.681 2.397 16.118 16.118 0 01-9.528 2.919 16.119 16.119 0 01-9.528-2.919l-.447-.27a1.768 1.768 0 01-.467-2.456 1.781 1.781 0 012.334-.541l.466.29a12.503 12.503 0 007.661 2.378 12.57 12.57 0 007.642-2.378 16.177 16.177 0 019.547-2.919 16.119 16.119 0 019.528 2.919 12.447 12.447 0 007.642 2.378 11.978 11.978 0 005.444-1.121 3.631 3.631 0 01-.097-.638c0-1.238.72-2.359 1.847-2.862l5.289-2.416 2.43-5.258c.74-1.586 2.626-2.282 4.2-1.547a3.1 3.1 0 011.556 1.546l2.43 5.259 5.29 2.416c1.516.677 2.236 2.417 1.633 3.944a13.763 13.763 0 0012.055-1.72l.448-.271c.855-.464 1.944-.155 2.411.696a1.756 1.756 0 01-.545 2.301l.02-.039zm3.597-46.05a3.527 3.527 0 00-3.597.078l-.428.27a17.057 17.057 0 01-19.114 0 13.5 13.5 0 00-15.303 0c-2.78 1.972-6.144 2.977-9.547 2.92a16.122 16.122 0 01-9.528-2.92 12.465 12.465 0 00-7.66-2.378c-1.284 0-2.567.155-3.792.503l.291.619 6.28 2.86a3.373 3.373 0 011.673 4.486c-.33.735-.933 1.315-1.672 1.663l-1.148.522a16.124 16.124 0 017.914 2.841 12.448 12.448 0 007.642 2.378 12.521 12.521 0 007.661-2.397 17.032 17.032 0 0119.056 0c4.628 3.19 10.753 3.19 15.361 0l.447-.27c.856-.465 1.945-.155 2.411.695.447.793.195 1.798-.544 2.32l-.428.27a17.057 17.057 0 01-19.114 0 13.5 13.5 0 00-15.303 0 16.182 16.182 0 01-9.547 2.92 16.123 16.123 0 01-9.528-2.92 12.465 12.465 0 00-7.66-2.377 12.847 12.847 0 00-4.356.696l-2.042 4.408c-.778 1.701-2.8 2.436-4.511 1.662a3.403 3.403 0 01-1.672-1.662l-.156-.348c-1.458.386-2.956.56-4.472.56a16.121 16.121 0 01-9.528-2.919l-.447-.27a1.767 1.767 0 01-.7-2.398c.466-.85 1.555-1.16 2.411-.696.058.02.097.058.155.097l.467.29a12.504 12.504 0 007.661 2.378c.992 0 1.984-.097 2.956-.29l-1.206-2.61-6.26-2.861a3.382 3.382 0 01-1.693-4.485 3.8 3.8 0 01.895-1.18 19.547 19.547 0 01-4.22-2.107l-.447-.27a3.577 3.577 0 00-4.9 1.16 3.483 3.483 0 00-.525 1.855v54.982c0 .986.797 1.778 1.77 1.778h96.055c.992 0 1.77-.792 1.77-1.778v-55a3.493 3.493 0 00-1.809-3.075" fill="#106EB4"/><path d="M46.078 60.816l-3.052-6.63-2.975 6.63a1.739 1.739 0 01-.875.87l-6.573 2.997 6.573 2.996c.389.174.7.484.875.87l2.352 5.104.642 1.43 2.14-4.658s.038-.058.038-.097l.817-1.779c.175-.386.486-.696.875-.87l6.572-3.015-6.572-2.997c-.39-.174-.68-.483-.875-.87M105.89 36.71l-2.353-5.105-2.353 5.104a1.739 1.739 0 01-.875.87l-5.133 2.34 5.133 2.339c.389.174.7.483.875.87l2.353 5.103 2.353-5.104c.175-.386.486-.695.875-.87l5.133-2.339-5.133-2.339a1.739 1.739 0 01-.875-.87zM65.971 28.957c-2.644 4.272-5.133 8.313-5.133 12.682a8.92 8.92 0 003.092 6.747 8.733 8.733 0 007.116 2.049c4.57-.696 7.856-4.756 7.564-9.338-.175-4.175-2.586-8.042-5.114-12.12a66.443 66.443 0 01-3.772-6.69 62.844 62.844 0 01-3.772 6.69" fill="#106EB4"/></svg>