<svg width="141" height="141" fill="none" xmlns="http://www.w3.org/2000/svg"><g clip-path="url(#clip0_2463_672)" fill="#106EB4"><path d="M16.116 22.287c-.966 0-1.873.367-2.563 1.044a3.533 3.533 0 00-1.065 2.533v53.724c0 1.972 1.637 3.577 3.668 3.577 8.498 0 22.755 1.759 32.594 11.85V38.797c0-.677-.177-1.295-.493-1.817-8.104-12.74-23.602-14.674-32.14-14.693zM90.652 25.864v35.068c-12.343 4.099-18.397 13.34-19.205 24.32-5.935 1.682-12.048 4.66-17.037 9.763V38.797c0-.677.178-1.295.493-1.817 8.065-12.74 23.583-14.674 32.101-14.693.967 0 1.874.367 2.564 1.044a3.553 3.553 0 011.084 2.533zM102.622 38.256v20.512a55.835 55.835 0 00-6.31.734V34.68h2.663c2.011 0 3.647 1.604 3.647 3.576zM73.161 96.195c-4.496.155-9.13.677-13.684 1.779 3.628-3.364 7.867-5.53 12.126-6.921.296 1.759.809 3.48 1.558 5.142z"/><path d="M6.81 79.589v-44.91H4.148C2.137 34.68.5 36.285.5 38.257V95.19c0 1.102.493 2.107 1.38 2.803a3.768 3.768 0 003.096.696c8.755-1.953 24.116-4.234 38.687-.735-8.42-7.81-20.33-9.202-27.526-9.221-5.147 0-9.327-4.118-9.327-9.144zM110.017 62.247v-5.954c0-1.044-.867-1.914-1.952-1.914s-1.952.85-1.952 1.914v5.954c-30.682.986-31.254 24.475-31.254 24.707 0 1.044.868 1.914 1.953 1.914 20.23 0 28.216-9.396 31.253-16.626 3.056 7.23 11.023 16.626 31.254 16.626 1.084 0 1.952-.85 1.952-1.914 0-.251-.572-23.72-31.254-24.707zM107.453 119.413c.197.058.414.096.611.096s.414-.038.611-.096c.276-.097 6.823-2.436 10.549-9.802.355-.715.651-1.45.927-2.184a42.084 42.084 0 01-3.51-3.712c-3.352 2.803-6.448 3.866-6.724 3.944a5.993 5.993 0 01-1.853.29 6.099 6.099 0 01-1.854-.29c-.276-.097-3.371-1.16-6.743-3.944a39.38 39.38 0 01-3.49 3.712c.276.754.571 1.488.926 2.204 3.707 7.384 10.254 9.724 10.53 9.801M126.461 107.619c.749.503 1.794.406 2.465-.232.099-.097 5.955-5.858 7.848-14.828-4.575-.193-8.676-.831-12.107-1.836-1.104 4.388-3.057 7.771-5.226 10.265 3.333 4.137 6.941 6.573 7.02 6.631zM79.371 92.56c1.893 8.969 7.77 14.73 7.848 14.827.67.657 1.696.735 2.465.232.079-.058 3.707-2.474 7.02-6.612-2.17-2.493-4.141-5.877-5.245-10.284-3.431 1.005-7.533 1.643-12.107 1.836"/><path d="M108.083 79.88c-2.681 3.52-6.822 7.077-12.915 9.551 2.622 11.251 11.831 14.441 12.284 14.577.198.058.415.096.612.096s.414-.038.611-.096c.454-.155 9.662-3.326 12.285-14.577-6.093-2.474-10.215-6.032-12.916-9.55"/></g><defs><clipPath id="clip0_2463_672"><path fill="#fff" transform="translate(.5 .898)" d="M0 0h140v140H0z"/></clipPath></defs></svg>