<svg width="256" height="53" fill="none" xmlns="http://www.w3.org/2000/svg"><path d="M66.18 26.878c-3.653 0-6.858-.003-7.702-.003-2.232.003-10.136-3.292-11.482-8.535-18.912 8.277-25.854 8.369-45.52 8.369L0 34.58c19.669 0 26.447.603 45.356-7.668 1.692 4.378 8.565 7.69 11.65 7.69 1.828.004 7.493 0 12.894 0-2.406-1.424-3.59-3.62-3.72-7.725zM49.3 6.24c1.692 4.378 8.464 7.838 11.545 7.838h9.183c1.97-2.687 4.728-4.91 8.323-6.24-5.68.002-14.722 0-16.235 0C59.886 7.84 51.815 5.245 50.469 0 31.56 8.274 24.785 7.662 5.116 7.662l-1.167 6.246c19.666 0 26.444.603 45.35-7.668z" fill="#0073B9"/><path d="M85.797 34.655c.055-1.569.162-3.362.327-5.258h-.11c-2.559 4.39-5.99 5.852-9.09 5.852-4.795 0-8.06-3.683-8.06-9.207 0-8.935 5.989-18.474 19.11-18.474 3.157.003 6.588.598 8.765 1.299L94.071 22.74c-.653 3.41-1.195 8.61-1.089 11.915h-7.184zM87.92 13.69c-.6-.107-1.305-.216-2.068-.216-5.12.003-8.822 6.174-8.822 11.104 0 2.6 1.034 4.387 3.211 4.387 2.397.003 5.34-2.654 6.535-9.156l1.144-6.12zM147.867 34.655l3.376-17.876c.653-3.361 1.089-6.231 1.47-8.613l6.916.003-.491 4.384h.11c2.504-3.41 5.77-4.985 9.31-4.985 4.355.003 6.859 2.655 6.859 7.26 0 1.193-.217 3.14-.433 4.442l-2.943 15.385h-7.892l2.83-14.678c.164-.922.271-1.954.271-2.928 0-1.896-.652-3.194-2.665-3.194-2.562.002-5.556 3.194-6.642 9.044l-2.235 11.756h-7.841zM245.056 34.655c.055-1.569.165-3.362.329-5.258h-.109c-2.559 4.39-5.99 5.852-9.094 5.852-4.791 0-8.057-3.683-8.057-9.207 0-8.935 5.989-18.474 19.112-18.474 3.156.003 6.587.598 8.764 1.299l-2.665 13.873c-.656 3.41-1.199 8.61-1.089 11.915h-7.191zm2.126-20.964c-.601-.107-1.308-.216-2.068-.216-5.12.003-8.822 6.174-8.822 11.104 0 2.6 1.034 4.387 3.211 4.387 2.397.003 5.337-2.654 6.535-9.156l1.144-6.12zM124.836 8.111l-5.065 26.544h-7.786l3.867-20.53h-5.879l-1.034 5.039c-1.308 6.71-3.05 10.506-5.828 12.888-1.958 1.899-4.355 2.979-8.273 2.979l-.494-6.12c1.634-.166 2.942-.703 3.867-1.626 1.689-1.514 2.832-4.387 3.595-8.288l2.068-10.886h20.962z" fill="#0C4965"/><path d="M47.46 15.532c1.69 4.378 8.502 8.636 11.583 8.636 1.083.006 3.994 0 7.306 0 .271-2.548 1.008-5.08 2.232-7.39-3.838.004-7.277 0-8.155 0-2.23.004-10.237-3.392-11.586-8.635-18.91 8.27-25.748 8.47-45.414 8.47L2.043 24c19.666 0 26.507-.2 45.417-8.47z" fill="#0073B9"/><path d="M135.017 8.164l-2.61 10.185.052.049c1.741-1.512 4.629-2.437 7.078-2.437 4.303 0 7.679 2.655 7.679 7.315 0 6.013-5.011 11.86-14.864 11.86-4.303.005-9.204-.977-9.204-6.663 0-1.347.437-3.574.818-5.09l3.376-15.219h7.675zm4.52 16.52c0-2.003-1.251-3.143-3.157-3.143-2.613 0-4.519 2.06-5.065 3.519-.271.71-.381 1.192-.381 2.063 0 1.517.982 2.488 2.888 2.488 2.72 0 5.715-1.893 5.715-4.927zM186.958 8.164l-2.72 14.193c-.219 1.244-.381 2.542-.381 3.516-.003 1.68.707 3.034 2.668 3.034 2.669.003 5.389-3.195 6.426-8.45l2.339-12.293h7.785L199.7 26.04c-.598 3.355-1.089 6.225-1.415 8.61h-6.914l.491-4.332h-.11c-2.723 3.464-5.934 4.927-9.148 4.927-4.3 0-6.862-2.385-6.862-7.421 0-1.405.165-3.034.546-4.876l2.833-14.784h7.837zM213.202 8.164l-1.851 9.751h8.115l1.851-9.75h7.841l-5.066 26.485h-7.84l2.068-10.722h-8.109l-2.016 10.722h-7.843l5.01-26.486h7.84zM133.275 47.383c0-.678-.133-1.207-.393-1.586-.263-.376-.647-.566-1.155-.566-.323 0-.615.07-.872.213-.26.14-.482.325-.67.551-.191.23-.349.486-.482.776-.133.29-.237.584-.318.88-.078.292-.139.58-.173.858a5.263 5.263 0 00-.055.71c0 .537.107.957.318 1.258.21.3.551.449 1.022.449.309 0 .595-.055.852-.173.257-.115.491-.267.699-.46.21-.19.39-.407.543-.652a4.538 4.538 0 00.609-1.543c.049-.26.075-.5.075-.715zm3.104-3.218c0 .29-.011.635-.04 1.038a14.188 14.188 0 01-.471 2.758c-.135.503-.312.994-.525 1.474-.217.48-.477.936-.786 1.367-.306.434-.667.81-1.086 1.138a5.048 5.048 0 01-1.438.773c-.543.19-1.155.284-1.845.284-.627 0-1.17-.075-1.626-.23a2.827 2.827 0 01-1.126-.68 2.716 2.716 0 01-.65-1.095 4.816 4.816 0 01-.208-1.477c0-.408.041-.848.119-1.319a8.235 8.235 0 011.01-2.77c.26-.43.569-.818.933-1.154.364-.334.78-.6 1.245-.796.467-.201.993-.299 1.582-.299.298 0 .581.032.849.095.269.063.511.152.725.27.214.12.401.264.56.437.159.17.286.367.376.592.008-.06.011-.121.011-.179v-.235a4.49 4.49 0 00-.153-1.181 2.598 2.598 0 00-.52-.988 2.47 2.47 0 00-.984-.675c-.41-.164-.922-.248-1.537-.248-.219 0-.364-.028-.436-.088-.072-.06-.109-.159-.109-.296 0-.038.002-.098.008-.179.009-.077.02-.17.041-.275.02-.107.04-.213.063-.325.023-.112.052-.221.081-.328.029-.103.064-.198.098-.281a.713.713 0 01.104-.172.414.414 0 01.173-.092c.078-.023.2-.035.364-.035.806 0 1.531.095 2.178.285.644.192 1.19.494 1.637.907.445.417.788.951 1.025 1.606.24.655.358 1.445.358 2.373zM122.849 46.758c0-.273-.029-.52-.087-.735a1.284 1.284 0 00-.277-.54 1.254 1.254 0 00-.497-.342 2.052 2.052 0 00-.739-.118 2.01 2.01 0 00-.892.192c-.263.127-.5.302-.708.517-.208.219-.39.469-.543.756a5.156 5.156 0 00-.375.902 5.966 5.966 0 00-.22.963 6.711 6.711 0 00-.069.933c0 .276.029.523.084.742.058.215.15.399.28.545.127.15.292.262.494.342.202.078.447.118.739.118a2 2 0 00.892-.192c.266-.13.503-.302.711-.523.208-.221.39-.474.54-.761.153-.285.277-.587.378-.906a6.595 6.595 0 00.289-1.893zm2.579-.166c0 .474-.046.962-.136 1.462a7.17 7.17 0 01-.422 1.465 6.13 6.13 0 01-.739 1.342c-.3.416-.661.787-1.08 1.106a5.1 5.1 0 01-1.444.755c-.543.184-1.155.276-1.836.276-.668 0-1.245-.077-1.73-.232-.485-.156-.893-.383-1.216-.681a2.77 2.77 0 01-.725-1.106c-.159-.437-.237-.94-.237-1.506 0-.471.044-.96.133-1.46.09-.5.231-.988.422-1.462.193-.474.439-.922.739-1.347.3-.422.661-.793 1.083-1.11a5.09 5.09 0 011.444-.749 5.676 5.676 0 011.834-.279c.667 0 1.244.08 1.729.233.489.155.893.382 1.219.681.324.302.563.67.722 1.106.159.437.24.94.24 1.506zM218.368 46.758c0-.273-.028-.52-.083-.735a1.24 1.24 0 00-.777-.882 2.04 2.04 0 00-.737-.118c-.332 0-.629.063-.895.192a2.472 2.472 0 00-.707.517c-.208.219-.39.469-.54.756-.153.287-.28.586-.379.902-.098.316-.17.638-.219.963a6.691 6.691 0 00-.066.933c0 .276.026.523.083.742.055.215.148.399.277.545.128.15.295.262.497.342.199.078.448.118.737.118.332 0 .629-.063.895-.192.263-.13.499-.302.707-.523.211-.221.39-.474.543-.761a5.24 5.24 0 00.376-.906c.101-.321.173-.64.219-.962.046-.322.069-.632.069-.93zm2.579-.166c0 .474-.043.962-.133 1.462a7.568 7.568 0 01-.421 1.465 6.436 6.436 0 01-.739 1.342 5.1 5.1 0 01-2.527 1.862c-.54.183-1.153.275-1.834.275-.67 0-1.245-.077-1.733-.232a3.231 3.231 0 01-1.216-.681 2.761 2.761 0 01-.721-1.106c-.159-.437-.24-.94-.24-1.506 0-.471.043-.96.136-1.46.086-.5.228-.988.421-1.462a6.49 6.49 0 01.739-1.347 5.086 5.086 0 011.08-1.11 5.09 5.09 0 011.444-.749 5.706 5.706 0 011.834-.279c.67 0 1.248.08 1.733.233.488.155.892.382 1.216.681.323.302.566.67.724 1.106.159.437.237.94.237 1.506zM94.037 45.293c0 .276-.052.549-.159.816a2.55 2.55 0 01-.447.73c-.19.221-.419.416-.684.586a3.222 3.222 0 01-.881.396l-.012.02c.214.026.416.084.615.179.2.091.373.212.526.364.153.15.271.328.358.526.087.201.127.425.127.667 0 .448-.092.879-.286 1.296a3.038 3.038 0 01-.87 1.088c-.386.314-.877.566-1.478.756-.597.19-1.308.284-2.128.284a6.59 6.59 0 01-1.773-.244 4.327 4.327 0 01-.682-.247 1.583 1.583 0 01-.43-.276c-.087-.086-.13-.218-.13-.396 0-.072.009-.178.032-.32.017-.14.049-.287.092-.439.044-.152.096-.281.16-.39.063-.11.138-.161.233-.161.098 0 .21.034.332.106.121.072.272.152.45.239.18.086.393.163.645.235.25.072.56.11.924.11.358 0 .678-.041.961-.113.283-.077.523-.184.717-.319a1.4 1.4 0 00.439-.474c.103-.18.155-.376.155-.586a.764.764 0 00-.407-.68 1.883 1.883 0 00-.58-.205 4.716 4.716 0 00-.907-.072h-1.014c-.112 0-.196-.026-.248-.074-.052-.05-.078-.124-.078-.224a2.964 2.964 0 01.119-.747c.046-.158.11-.3.193-.42.08-.12.188-.184.312-.184h.803c.398 0 .748-.031 1.048-.094.3-.064.551-.153.748-.27.2-.121.35-.265.45-.434.104-.173.156-.368.156-.584 0-.295-.118-.517-.358-.66-.237-.147-.583-.219-1.03-.219-.359 0-.685.04-.983.12a5.838 5.838 0 00-.794.262c-.23.095-.43.181-.589.262-.164.077-.277.115-.343.115-.14 0-.208-.107-.208-.325 0-.083.011-.192.034-.325.023-.132.055-.267.096-.405.037-.138.083-.267.135-.39a.99.99 0 01.182-.282c.084-.078.231-.166.44-.264.207-.1.455-.19.738-.267.286-.08.601-.147.942-.204a6.755 6.755 0 011.054-.084c.569 0 1.06.055 1.473.158.413.107.753.259 1.022.454a1.9 1.9 0 01.595.707c.13.273.193.575.193.902zM101.872 46.27c-.231-.36-.488-.632-.769-.813a1.762 1.762 0 00-.978-.273c-.278 0-.532.069-.763.198-.234.132-.436.31-.615.529a3.687 3.687 0 00-.47.764c-.14.29-.249.592-.339.905a6.711 6.711 0 00-.262 1.83c0 .196.014.385.043.56.029.178.084.336.165.474.078.141.184.25.317.334.133.08.3.123.506.123.291 0 .589-.089.892-.261.306-.176.589-.414.855-.71.262-.302.496-.652.699-1.049.202-.399.349-.824.441-1.278l.278-1.333zm1.23 6.18c-.026.138-.13.235-.312.296-.182.06-.477.089-.878.089-.205 0-.372-.006-.502-.02a1.375 1.375 0 01-.312-.064c-.081-.031-.13-.069-.153-.117a.28.28 0 01-.015-.184l.277-1.411c-.098.21-.257.431-.476.667a4.08 4.08 0 01-.774.634 4.609 4.609 0 01-.988.475 3.426 3.426 0 01-1.114.186c-.532 0-.97-.092-1.32-.276a2.248 2.248 0 01-.843-.744 3.109 3.109 0 01-.454-1.071 5.793 5.793 0 01-.132-1.264c0-.414.04-.865.118-1.356.078-.489.202-.98.367-1.466.164-.488.378-.956.635-1.407.257-.449.569-.85.93-1.198.358-.35.77-.627 1.239-.834.465-.21.993-.313 1.582-.313.549 0 1.034.115 1.459.342.421.227.791.558 1.109.991l.161-.778c.026-.138.13-.239.312-.296.182-.06.474-.092.878-.092.199 0 .364.011.497.026.13.017.236.04.312.069a.29.29 0 01.153.118c.026.048.034.109.02.175l-1.776 8.823zM112.351 45.67a.807.807 0 00-.069-.328.762.762 0 00-.217-.282 1.062 1.062 0 00-.378-.192 1.929 1.929 0 00-.554-.069 2.167 2.167 0 00-1.465.566c-.207.19-.395.425-.56.712a4.731 4.731 0 00-.416.992h1.675c.318 0 .601-.032.855-.092.251-.063.459-.155.624-.279.164-.12.292-.27.378-.443.084-.175.127-.37.127-.586zm-.514 3.915c0-.129-.026-.258-.075-.385a.718.718 0 00-.274-.321 1.782 1.782 0 00-.549-.216 3.964 3.964 0 00-.91-.083h-1.646a4.895 4.895 0 00-.118 1.114c0 .54.118.937.355 1.184.24.25.627.377 1.161.377.352 0 .658-.046.918-.138.263-.092.477-.216.647-.371.168-.155.292-.336.37-.537.081-.207.121-.411.121-.624zm2.489-.077c0 .276-.037.557-.109.839a2.906 2.906 0 01-.347.813 3.22 3.22 0 01-.615.727 3.751 3.751 0 01-.907.58 5.459 5.459 0 01-1.23.39 7.981 7.981 0 01-1.582.144c-.624 0-1.17-.072-1.638-.212-.471-.141-.86-.348-1.166-.62a2.626 2.626 0 01-.699-1.018 3.801 3.801 0 01-.24-1.396c0-.322.032-.713.09-1.167.06-.453.164-.928.317-1.425.153-.5.361-.99.627-1.482a5.16 5.16 0 011.011-1.313c.41-.385.901-.695 1.472-.937.572-.238 1.245-.359 2.019-.359.603 0 1.118.06 1.548.187.43.124.788.293 1.068.503a1.967 1.967 0 01.818 1.6c0 .302-.055.58-.165.833a2.155 2.155 0 01-.445.67 2.72 2.72 0 01-.67.5c-.257.14-.534.24-.834.307.306.057.566.15.779.27.217.12.387.264.523.425.13.161.225.342.286.537.061.199.089.4.089.604zM159.817 46.27c-.231-.36-.488-.632-.768-.813a1.78 1.78 0 00-.979-.273 1.54 1.54 0 00-.763.198c-.233.132-.439.31-.615.529a3.655 3.655 0 00-.47.764c-.139.29-.252.592-.338.905a6.742 6.742 0 00-.263 1.83c0 .196.014.385.043.56.029.178.084.336.165.474.078.141.185.25.318.334.129.08.3.123.505.123.292 0 .589-.089.892-.261.303-.176.589-.414.855-.71a5.14 5.14 0 001.141-2.327l.277-1.333zm1.23 6.18c-.029.138-.13.235-.312.296-.182.06-.476.089-.878.089-.208 0-.372-.006-.502-.02a1.375 1.375 0 01-.312-.064c-.081-.031-.133-.069-.153-.117a.293.293 0 01-.014-.184l.277-1.411a2.82 2.82 0 01-.477.667 4.017 4.017 0 01-.774.634c-.3.193-.626.348-.987.475A3.429 3.429 0 01155.8 53c-.531 0-.97-.092-1.32-.276a2.251 2.251 0 01-.843-.744 3.039 3.039 0 01-.453-1.071 5.763 5.763 0 01-.133-1.264c0-.414.04-.865.118-1.356.078-.489.202-.98.367-1.466.165-.488.378-.956.635-1.407a5.35 5.35 0 01.927-1.198c.361-.35.774-.627 1.239-.834.468-.21.996-.313 1.583-.313.551 0 1.036.115 1.461.342.421.227.791.558 1.112.991l.159-.778c.026-.138.129-.239.311-.296.182-.06.474-.092.878-.092.2 0 .364.011.497.026.13.017.234.04.312.069a.29.29 0 01.153.118c.026.048.032.109.02.175l-1.776 8.823zM199.001 52.438a.307.307 0 01-.096.172.556.556 0 01-.231.124 2.087 2.087 0 01-.401.075 6.137 6.137 0 01-.612.023 5.8 5.8 0 01-.595-.023 1.477 1.477 0 01-.367-.075c-.087-.032-.144-.075-.173-.123-.032-.05-.035-.107-.015-.173l1.06-5.28c.026-.153.052-.302.069-.451.021-.147.032-.296.032-.449 0-.307-.058-.557-.176-.75-.115-.189-.32-.284-.618-.284-.266 0-.54.084-.823.256-.286.17-.557.402-.82.695-.26.293-.491.635-.693 1.026a4.666 4.666 0 00-.433 1.25l-.803 3.987a.335.335 0 01-.093.172.593.593 0 01-.233.124c-.107.035-.24.057-.402.075a6.137 6.137 0 01-.612.023 5.6 5.6 0 01-.589-.023 1.48 1.48 0 01-.364-.075.34.34 0 01-.173-.123.228.228 0 01-.023-.173l1.051-5.28c.04-.153.066-.308.083-.469.018-.16.026-.316.026-.468 0-.29-.06-.531-.179-.718-.121-.187-.326-.279-.615-.279-.265 0-.54.084-.823.256-.286.17-.56.402-.82.695-.26.293-.491.635-.693 1.026a4.666 4.666 0 00-.433 1.25l-.803 3.987a.338.338 0 01-.095.172.546.546 0 01-.226.124 1.98 1.98 0 01-.404.075 6.072 6.072 0 01-.606.023c-.243 0-.445-.006-.598-.023a1.54 1.54 0 01-.367-.075c-.089-.032-.147-.075-.173-.123a.242.242 0 01-.023-.173l1.779-8.814a.336.336 0 01.084-.172.435.435 0 01.199-.118c.086-.032.202-.055.346-.07.142-.016.312-.025.511-.025.205 0 .37.009.5.026.13.014.231.037.303.069.072.028.122.069.145.118a.28.28 0 01.014.172l-.289 1.45c.142-.23.327-.465.558-.706a4.52 4.52 0 011.75-1.115c.346-.12.707-.18 1.077-.18.384 0 .716.048.996.152.28.1.514.24.696.422.182.184.321.396.416.638.095.244.156.505.182.79.153-.236.346-.474.58-.71.237-.235.503-.45.794-.643a4.59 4.59 0 01.959-.469c.344-.12.699-.18 1.06-.18.462 0 .852.063 1.167.192.315.13.569.304.759.531.191.227.329.494.416.802.087.304.13.635.13.991 0 .23-.014.46-.04.695a7.235 7.235 0 01-.119.716l-1.091 5.438zM228.636 45.67a.807.807 0 00-.069-.328.762.762 0 00-.217-.282 1.062 1.062 0 00-.378-.192 1.943 1.943 0 00-.554-.069 2.167 2.167 0 00-1.464.566c-.208.19-.396.425-.561.712a4.433 4.433 0 00-.416.992h1.675c.318 0 .604-.032.855-.092.251-.063.459-.155.624-.279.165-.12.292-.27.378-.443.084-.175.127-.37.127-.586zm-.514 3.915c0-.129-.026-.258-.075-.385a.73.73 0 00-.271-.321 1.869 1.869 0 00-.552-.216 3.96 3.96 0 00-.909-.083h-1.646a4.67 4.67 0 00-.09.537c-.02.181-.029.373-.029.578 0 .54.118.936.358 1.183.237.25.624.377 1.158.377.353 0 .659-.046.919-.138.262-.092.476-.216.644-.371.17-.155.294-.336.372-.537.081-.207.121-.411.121-.624zm2.49-.077c0 .276-.038.557-.11.839a2.906 2.906 0 01-.347.813 3.194 3.194 0 01-.615.727 3.726 3.726 0 01-.909.58 5.408 5.408 0 01-1.228.39 8.003 8.003 0 01-1.582.144c-.624 0-1.17-.072-1.641-.212a3.062 3.062 0 01-1.163-.62 2.615 2.615 0 01-.699-1.018 3.801 3.801 0 01-.24-1.396c0-.322.032-.713.09-1.167.06-.453.167-.928.317-1.425.153-.5.361-.99.627-1.482a5.182 5.182 0 011.011-1.313c.41-.385.901-.695 1.472-.937.572-.238 1.245-.359 2.022-.359.601 0 1.115.06 1.548.187.427.124.782.293 1.065.503a2 2 0 01.621.733c.13.272.197.565.197.867 0 .302-.055.58-.165.833a2.155 2.155 0 01-.445.67 2.664 2.664 0 01-.67.5c-.257.14-.537.24-.834.307.306.057.566.15.78.27.213.12.389.264.519.425.133.161.228.342.289.537.058.199.09.4.09.604zM150.328 52.438a.305.305 0 01-.098.172.592.592 0 01-.234.123 1.898 1.898 0 01-.395.075 6.078 6.078 0 01-.613.023 5.75 5.75 0 01-.594-.023 1.462 1.462 0 01-.367-.075c-.087-.031-.145-.074-.174-.123a.211.211 0 01-.014-.172l.696-3.465h-3.503l-.696 3.465a.334.334 0 01-.092.172.577.577 0 01-.231.123 1.886 1.886 0 01-.402.075 6.003 6.003 0 01-.603.023c-.246 0-.445-.006-.601-.023a1.535 1.535 0 01-.367-.075c-.089-.031-.147-.074-.173-.123a.242.242 0 01-.02-.172l1.764-8.803a.349.349 0 01.096-.175.56.56 0 01.228-.121c.101-.035.236-.06.395-.075a6.04 6.04 0 01.613-.026c.242 0 .444.009.6.026.156.014.277.04.367.075.087.031.147.072.173.12.026.05.032.11.018.176l-.665 3.295h3.503l.665-3.295a.361.361 0 01.089-.175.51.51 0 01.225-.121c.101-.035.237-.06.402-.075.164-.017.366-.026.603-.026.246 0 .448.009.601.026.156.014.277.04.367.075.089.031.15.072.179.12.029.05.037.11.026.176l-1.768 8.803zM182.614 52.449a.37.37 0 01-.083.172.445.445 0 01-.2.118 1.869 1.869 0 01-.34.072 5.156 5.156 0 01-.517.023 4.69 4.69 0 01-.503-.023 1.307 1.307 0 01-.3-.072c-.075-.028-.124-.069-.145-.118a.23.23 0 01-.005-.172l.268-1.43c-.133.23-.315.462-.546.695a4.783 4.783 0 01-.799.64 4.19 4.19 0 01-.977.468c-.352.121-.713.179-1.082.179-.463 0-.855-.064-1.176-.19a2.062 2.062 0 01-.774-.523 2.051 2.051 0 01-.424-.796 3.606 3.606 0 01-.136-1.008c0-.221.014-.451.046-.684a11.4 11.4 0 01.113-.718l1.091-5.456a.356.356 0 01.096-.175.54.54 0 01.228-.118 2.48 2.48 0 01.401-.069 6.966 6.966 0 011.204 0c.156.017.278.04.364.07a.317.317 0 01.174.117c.028.049.037.11.026.175l-1.054 5.29a4.368 4.368 0 00-.076.453c-.014.158-.023.31-.023.454 0 .158.015.302.044.428.031.13.078.242.144.334.066.091.15.16.254.206a.897.897 0 00.373.07c.268 0 .551-.087.846-.262.294-.175.575-.417.84-.721.263-.308.5-.667.708-1.086.211-.417.366-.87.473-1.356l.751-3.81a.278.278 0 01.093-.175.575.575 0 01.231-.118 2.52 2.52 0 01.401-.069 7.092 7.092 0 011.207 0c.153.017.277.04.367.07.089.028.147.07.173.117a.25.25 0 01.02.175l-1.776 8.823zM209.716 52.417a.314.314 0 01-.054.187c-.035.055-.104.098-.203.132a1.442 1.442 0 01-.398.075c-.165.014-.376.02-.635.02-.278 0-.5-.006-.667-.02a2.02 2.02 0 01-.393-.057c-.093-.03-.156-.066-.188-.112a.485.485 0 01-.072-.176l-.404-2.132a4.135 4.135 0 00-.208-.703 1.229 1.229 0 00-.301-.446.978.978 0 00-.43-.227 2.469 2.469 0 00-.601-.063h-.505l-.725 3.591c-.006.046-.037.092-.089.135a.682.682 0 01-.243.112 2.15 2.15 0 01-.407.075 6.62 6.62 0 01-.581.023c-.231 0-.421-.009-.574-.023a1.59 1.59 0 01-.367-.075.42.42 0 01-.191-.112.186.186 0 01-.037-.135l1.785-8.912c.005-.045.037-.091.089-.135a.692.692 0 01.24-.109c.104-.029.239-.051.401-.066.162-.017.358-.026.589-.026.226 0 .416.009.569.026.156.014.283.037.373.066a.454.454 0 01.196.11c.035.043.046.089.032.134L205.032 47h.506c.179 0 .355-.023.528-.069.171-.046.338-.13.5-.247.162-.118.323-.276.488-.471.159-.193.326-.44.491-.741l1.08-1.86a.695.695 0 01.15-.172.657.657 0 01.263-.117c.115-.03.263-.052.442-.064.179-.014.404-.02.684-.02.243 0 .439.006.583.02.148.012.26.03.344.055.084.023.139.049.165.078a.157.157 0 01.037.103c0 .066-.02.152-.063.253a3.86 3.86 0 01-.223.41l-1.103 1.745a6.4 6.4 0 01-.58.81c-.194.23-.39.425-.584.589-.196.16-.387.293-.577.393a3.05 3.05 0 01-.54.233v.017c.179.07.346.152.502.259.153.106.298.238.428.4.127.16.242.35.346.568.101.215.188.471.263.758l.485 2.006c.026.123.046.224.055.299.009.077.014.137.014.183zM171.897 52.436a.323.323 0 01-.098.172.614.614 0 01-.234.124 1.932 1.932 0 01-.398.074 6.043 6.043 0 01-.61.023c-.236 0-.436-.005-.594-.023a1.561 1.561 0 01-.373-.074c-.089-.032-.147-.075-.176-.124a.194.194 0 01-.017-.172l1.417-7.088h-3.352l-1.418 7.088a.327.327 0 01-.096.172.557.557 0 01-.231.124 2.048 2.048 0 01-.407.074 6.059 6.059 0 01-.606.023c-.246 0-.445-.005-.601-.023a1.446 1.446 0 01-.361-.074c-.086-.032-.141-.075-.167-.124a.232.232 0 01-.021-.172l1.675-8.34c.055-.265.151-.463.289-.598.139-.135.327-.201.566-.201h6.966c.231 0 .387.066.47.201.081.135.099.333.044.598l-1.667 8.34z" fill="#0C4965"/></svg>