<svg width="200" height="43" fill="none" xmlns="http://www.w3.org/2000/svg"><path d="M51.703 22.006l-6.017-.002c-1.744.002-7.919-2.586-8.97-6.703-14.775 6.5-20.199 6.572-35.563 6.572L0 28.055c15.366 0 20.662.473 35.434-6.022 1.323 3.438 6.692 6.04 9.102 6.04 1.428.002 5.854 0 10.073 0-1.88-1.12-2.804-2.843-2.906-6.067zM38.516 5.799c1.322 3.438 6.613 6.154 9.02 6.154h7.174c1.539-2.11 3.694-3.855 6.502-4.9-4.437.002-11.501 0-12.684 0-1.741.002-8.047-2.035-9.098-6.155C24.657 7.396 19.364 6.915 3.997 6.915l-.911 4.905c15.364 0 20.66.474 35.43-6.021z" fill="#fff"/><path d="M67.03 28.11c.043-1.231.127-2.64.256-4.128H67.2c-2 3.447-4.68 4.596-7.102 4.596-3.746 0-6.297-2.893-6.297-7.231C53.8 14.33 58.48 6.84 68.73 6.84c2.467.002 5.147.47 6.848 1.02l-2.085 10.894c-.51 2.678-.934 6.762-.85 9.356H67.03zm1.659-16.462c-.47-.084-1.02-.17-1.615-.17-4 .003-6.893 4.849-6.893 8.72 0 2.042.808 3.445 2.509 3.445 1.872.003 4.171-2.084 5.105-7.19l.894-4.805zM115.52 28.11l2.637-14.037c.51-2.64.85-4.894 1.148-6.764l5.404.002-.384 3.443h.086c1.956-2.678 4.508-3.914 7.274-3.914 3.402.002 5.358 2.085 5.358 5.701 0 .936-.169 2.466-.339 3.488l-2.299 12.081h-6.166l2.211-11.526c.129-.724.213-1.534.213-2.299 0-1.489-.51-2.509-2.083-2.509-2.001.002-4.341 2.51-5.189 7.102l-1.746 9.232h-6.125zM191.45 28.11c.043-1.231.129-2.64.257-4.128h-.085c-1.999 3.447-4.679 4.596-7.105 4.596-3.743 0-6.294-2.893-6.294-7.231 0-7.017 4.679-14.507 14.931-14.507 2.466.002 5.146.47 6.847 1.02l-2.083 10.894c-.512 2.678-.936 6.762-.85 9.356h-5.618zm1.661-16.462c-.47-.084-1.022-.17-1.616-.17-4 .003-6.892 4.849-6.892 8.72 0 2.042.808 3.445 2.509 3.445 1.872.003 4.169-2.084 5.105-7.19l.894-4.805zM97.525 7.268l-3.957 20.844h-6.082l3.02-16.122h-4.593l-.807 3.957c-1.022 5.27-2.383 8.25-4.553 10.12-1.53 1.492-3.403 2.34-6.464 2.34l-.386-4.805c1.277-.131 2.3-.553 3.021-1.277 1.32-1.19 2.213-3.445 2.809-6.509l1.615-8.548h16.377zM37.08 13.096c1.32 3.438 6.642 6.782 9.049 6.782.846.004 3.12 0 5.708 0a16.1 16.1 0 011.744-5.803c-2.999.002-5.686 0-6.372 0-1.741.002-7.998-2.665-9.051-6.782-14.773 6.495-20.116 6.651-35.48 6.651l-1.08 5.803c15.364 0 20.708-.158 35.482-6.651zM105.484 7.309l-2.04 7.997.041.039c1.36-1.187 3.616-1.913 5.529-1.913 3.362 0 5.999 2.084 5.999 5.744 0 4.722-3.914 9.313-11.612 9.313-3.361.005-7.19-.767-7.19-5.232 0-1.058.34-2.807.638-3.998l2.638-11.95h5.997zm3.53 12.972c0-1.572-.977-2.468-2.466-2.468-2.041 0-3.53 1.618-3.957 2.764-.212.557-.298.936-.298 1.62 0 1.19.767 1.954 2.257 1.954 2.125 0 4.464-1.487 4.464-3.87zM146.064 7.309l-2.126 11.145c-.171.977-.298 1.996-.298 2.761-.002 1.32.553 2.383 2.085 2.383 2.085.002 4.21-2.509 5.02-6.636l1.827-9.653h6.083l-2.638 14.037c-.467 2.635-.85 4.89-1.105 6.762h-5.401l.383-3.402h-.085c-2.128 2.72-4.637 3.869-7.148 3.869-3.359 0-5.36-1.873-5.36-5.828 0-1.103.128-2.382.426-3.828l2.213-11.61h6.124zM166.563 7.309l-1.446 7.657h6.34l1.446-7.657h6.125l-3.957 20.799h-6.125l1.615-8.42h-6.335l-1.575 8.42h-6.128l3.915-20.8h6.125zM104.123 38.107c0-.532-.104-.947-.307-1.245-.206-.296-.506-.445-.903-.445-.252 0-.48.055-.681.167-.203.111-.377.255-.523.434a2.72 2.72 0 00-.377.609 4.48 4.48 0 00-.248.69 5.08 5.08 0 00-.179 1.232c0 .422.084.751.249.988.164.235.43.352.798.352.242 0 .465-.043.666-.135.201-.09.383-.21.546-.361a2.42 2.42 0 00.424-.512 3.598 3.598 0 00.476-1.212c.038-.205.059-.392.059-.562zm2.425-2.526c0 .227-.009.498-.032.814a11.37 11.37 0 01-.367 2.166c-.107.395-.244.78-.411 1.157a6.203 6.203 0 01-.614 1.074c-.239.34-.521.636-.848.893a3.941 3.941 0 01-1.124.607 4.321 4.321 0 01-1.441.224c-.49 0-.914-.059-1.27-.18-.357-.123-.65-.3-.88-.535-.23-.235-.4-.522-.508-.86a3.809 3.809 0 01-.162-1.16 6.528 6.528 0 01.882-3.21c.203-.339.444-.643.728-.907.285-.262.61-.471.973-.625a3.079 3.079 0 011.236-.235c.233 0 .454.025.664.075.209.05.399.12.566.212.167.095.313.207.437.343.125.133.224.289.294.465a.958.958 0 00.009-.14v-.185c0-.327-.041-.634-.12-.927a2.038 2.038 0 00-.406-.777 1.94 1.94 0 00-.769-.53c-.321-.128-.72-.194-1.2-.194-.172 0-.285-.022-.341-.07-.057-.047-.086-.124-.086-.232a1.912 1.912 0 01.038-.357l.05-.255c.018-.088.041-.173.063-.257.023-.081.05-.155.077-.22a.54.54 0 01.081-.136.324.324 0 01.136-.072c.06-.018.155-.027.284-.027.629 0 1.196.074 1.701.223.503.151.929.388 1.279.713.348.327.616.747.801 1.261.187.514.28 1.135.28 1.864zM95.977 37.618c0-.215-.023-.409-.068-.578a1.011 1.011 0 00-.216-.424.982.982 0 00-.388-.268 1.597 1.597 0 00-.578-.093c-.257 0-.49.05-.697.151-.205.1-.39.237-.553.406a2.684 2.684 0 00-.424.594 4.628 4.628 0 00-.465 1.464c-.036.257-.054.5-.054.733 0 .217.023.41.066.582.045.17.117.314.219.429.099.117.227.205.385.268.158.061.35.093.578.093.257 0 .492-.05.697-.151.208-.102.393-.237.555-.41.162-.175.305-.373.422-.599.12-.223.216-.46.295-.71a5.181 5.181 0 00.226-1.487zm2.015-.131c0 .372-.036.756-.106 1.148-.068.39-.178.776-.33 1.151-.149.374-.34.726-.577 1.053a4.103 4.103 0 01-.844.87c-.327.25-.704.446-1.128.592a4.437 4.437 0 01-1.435.217c-.521 0-.972-.06-1.351-.183-.38-.121-.698-.3-.95-.534a2.178 2.178 0 01-.567-.869 3.469 3.469 0 01-.184-1.182c0-.37.033-.754.103-1.146.07-.393.18-.776.33-1.149a5.3 5.3 0 01.577-1.058 3.918 3.918 0 011.974-1.46c.422-.144.9-.218 1.433-.218.521 0 .972.063 1.351.182.382.122.698.3.953.535.252.237.44.526.564.869.124.343.187.737.187 1.182zM170.598 37.618a2.36 2.36 0 00-.065-.578 1.045 1.045 0 00-.219-.424.965.965 0 00-.388-.268 1.587 1.587 0 00-.575-.093c-.26 0-.492.05-.7.151-.205.1-.39.237-.553.406a2.638 2.638 0 00-.422.594c-.119.225-.218.46-.295.708a5.2 5.2 0 00-.172.756c-.036.257-.051.5-.051.733 0 .217.02.41.065.582a.964.964 0 00.605.697c.155.061.349.093.575.093.259 0 .492-.05.699-.151.206-.102.391-.237.553-.41.165-.175.305-.373.424-.599.118-.223.217-.46.294-.71a5.184 5.184 0 00.225-1.487zm2.015-.131c0 .372-.034.756-.104 1.148-.07.39-.18.776-.329 1.151a5.009 5.009 0 01-.578 1.053 3.975 3.975 0 01-1.974 1.462c-.422.145-.9.217-1.433.217-.523 0-.972-.06-1.353-.183a2.515 2.515 0 01-.95-.534 2.17 2.17 0 01-.564-.869 3.47 3.47 0 01-.187-1.182c0-.37.033-.754.106-1.146.067-.393.178-.776.329-1.149.149-.372.341-.724.578-1.058.234-.331.516-.622.843-.87a3.98 3.98 0 011.128-.59 4.439 4.439 0 011.433-.218c.524 0 .975.063 1.354.182.381.122.697.3.95.535a2.2 2.2 0 01.566.869c.124.343.185.737.185 1.182zM73.464 36.465c0 .216-.04.43-.124.64-.083.208-.198.4-.35.574a2.416 2.416 0 01-.534.46c-.208.135-.436.239-.688.311l-.01.016c.168.02.326.065.481.14.156.072.291.167.41.286.12.118.213.258.28.413.068.158.1.334.1.524 0 .352-.072.69-.224 1.017a2.385 2.385 0 01-.679.855c-.302.246-.686.445-1.155.593-.467.15-1.022.224-1.663.224a5.129 5.129 0 01-1.385-.192 3.359 3.359 0 01-.532-.194 1.235 1.235 0 01-.336-.216c-.068-.068-.102-.172-.102-.312 0-.056.007-.14.025-.25.014-.11.038-.226.072-.346.034-.119.075-.22.124-.306.05-.086.108-.127.183-.127.077 0 .165.027.26.084.094.056.212.12.351.187.14.068.307.129.504.185.196.056.437.086.721.086.28 0 .53-.032.752-.088a1.8 1.8 0 00.56-.25c.148-.104.263-.229.342-.373a.912.912 0 00.122-.46.602.602 0 00-.318-.535 1.468 1.468 0 00-.454-.16 3.674 3.674 0 00-.708-.056h-.792c-.088 0-.153-.02-.194-.06-.04-.037-.06-.096-.06-.175a2.351 2.351 0 01.092-.587 1.13 1.13 0 01.15-.329c.064-.095.147-.144.245-.144h.627c.311 0 .584-.025.819-.075.234-.05.43-.12.584-.212.156-.095.273-.207.352-.34a.875.875 0 00.122-.459.564.564 0 00-.28-.519c-.185-.114-.456-.171-.805-.171-.28 0-.535.032-.767.095-.233.06-.44.128-.62.205a6.6 6.6 0 00-.461.205c-.129.061-.217.09-.269.09-.108 0-.162-.083-.162-.254 0-.066.009-.152.027-.255.018-.104.043-.21.074-.318.03-.109.066-.21.106-.307a.777.777 0 01.143-.221c.065-.061.18-.131.343-.208.162-.079.356-.149.577-.21.223-.063.47-.115.736-.16.27-.043.543-.065.823-.065.445 0 .828.043 1.15.124.323.083.59.203.8.356.207.156.363.341.464.555.102.215.151.452.151.709zM79.587 37.232a2.082 2.082 0 00-.6-.639 1.373 1.373 0 00-.765-.214c-.217 0-.415.054-.596.156-.183.103-.34.243-.48.415a2.9 2.9 0 00-.368.6 4.55 4.55 0 00-.264.71 5.298 5.298 0 00-.205 1.438c0 .153.011.302.034.44.022.14.065.264.128.372.061.11.144.196.248.262a.747.747 0 00.395.097c.228 0 .46-.07.697-.206.24-.137.46-.324.668-.557a4.049 4.049 0 00.891-1.827l.217-1.047zm.96 4.853c-.02.108-.1.185-.243.232-.142.047-.372.07-.686.07-.16 0-.29-.005-.392-.016a1.07 1.07 0 01-.244-.05c-.063-.024-.101-.054-.12-.092a.219.219 0 01-.01-.144l.216-1.108a2.1 2.1 0 01-.372.523c-.172.183-.373.35-.605.499-.232.151-.49.273-.771.372a2.664 2.664 0 01-.871.147c-.415 0-.758-.072-1.031-.217a1.759 1.759 0 01-.66-.584 2.446 2.446 0 01-.353-.842 4.566 4.566 0 01-.104-.992 7.088 7.088 0 01.379-2.215c.128-.384.295-.752.496-1.106.2-.352.445-.668.727-.941.28-.275.602-.492.968-.654a2.965 2.965 0 011.236-.246c.428 0 .808.09 1.14.268.329.178.617.438.865.779l.127-.612c.02-.108.101-.187.243-.232.143-.048.37-.072.686-.072.156 0 .285.009.388.02.102.013.185.032.244.054.059.023.1.056.12.093a.2.2 0 01.016.137l-1.388 6.929zM87.772 36.76a.605.605 0 00-.223-.478.829.829 0 00-.296-.151 1.502 1.502 0 00-.433-.054 1.688 1.688 0 00-1.144.444 2.286 2.286 0 00-.438.56 3.688 3.688 0 00-.324.778h1.308c.248 0 .47-.025.668-.072a1.35 1.35 0 00.487-.219.969.969 0 00.296-.347c.065-.138.1-.291.1-.46zm-.401 3.075a.836.836 0 00-.06-.302.565.565 0 00-.214-.253 1.385 1.385 0 00-.428-.169 3.083 3.083 0 00-.71-.065h-1.287a3.822 3.822 0 00-.092.875c0 .424.092.736.277.93.187.196.49.295.907.295.275 0 .514-.036.718-.108.205-.072.372-.17.505-.291a1.13 1.13 0 00.289-.422 1.33 1.33 0 00.095-.49zm1.944-.06c0 .216-.03.437-.085.658a2.295 2.295 0 01-.271.639 2.517 2.517 0 01-.48.57 2.943 2.943 0 01-.71.456c-.277.131-.597.233-.96.307a6.202 6.202 0 01-1.237.113c-.487 0-.913-.056-1.279-.167a2.363 2.363 0 01-.911-.487 2.076 2.076 0 01-.546-.8 3.001 3.001 0 01-.188-1.096c0-.252.025-.56.07-.916.048-.356.129-.728.249-1.119.12-.392.282-.778.49-1.164a3.837 3.837 0 011.94-1.767c.446-.186.972-.281 1.576-.281.472 0 .874.047 1.21.146.336.097.616.23.834.395.22.165.382.357.483.575.104.215.156.445.156.682 0 .237-.043.456-.129.654-.083.199-.2.375-.347.526a2.135 2.135 0 01-.524.392c-.2.11-.417.19-.652.242.24.045.443.117.61.212.169.095.302.207.408.334.102.126.176.268.223.422.048.155.07.313.07.473zM124.856 37.232a2.075 2.075 0 00-.6-.639 1.384 1.384 0 00-.765-.214c-.216 0-.415.054-.595.156a1.682 1.682 0 00-.481.415 2.89 2.89 0 00-.367.6 4.206 4.206 0 00-.264.71 5.314 5.314 0 00-.206 1.438c0 .153.012.302.034.44.023.14.066.264.129.372.061.11.144.196.248.262a.738.738 0 00.395.097c.228 0 .46-.07.697-.206.237-.137.46-.324.668-.557a4.065 4.065 0 00.891-1.827l.216-1.047zm.961 4.853c-.022.108-.101.185-.243.232-.142.047-.372.07-.686.07-.162 0-.291-.005-.393-.016a1.07 1.07 0 01-.243-.05c-.063-.024-.104-.054-.12-.092a.236.236 0 01-.011-.144l.216-1.108a2.2 2.2 0 01-.372.523c-.171.183-.372.35-.604.499-.235.151-.49.273-.772.372a2.664 2.664 0 01-.871.147c-.415 0-.758-.072-1.031-.217a1.764 1.764 0 01-.659-.584 2.404 2.404 0 01-.354-.842 4.566 4.566 0 01-.104-.992 7.16 7.16 0 01.379-2.215c.129-.384.296-.752.497-1.106.2-.352.442-.668.724-.941.282-.275.605-.492.968-.654a2.976 2.976 0 011.236-.246c.431 0 .81.09 1.142.268.329.178.618.438.868.779l.124-.612c.021-.108.102-.187.244-.232.142-.048.37-.072.686-.072.156 0 .284.009.388.02.101.013.183.032.244.054a.227.227 0 01.119.093.21.21 0 01.016.137l-1.388 6.929zM155.471 42.076a.237.237 0 01-.075.135.431.431 0 01-.18.097c-.084.027-.19.045-.314.059a4.765 4.765 0 01-.478.018c-.185 0-.341-.005-.465-.018a1.154 1.154 0 01-.287-.059.254.254 0 01-.135-.097c-.025-.038-.027-.084-.011-.135l.828-4.147c.02-.12.04-.237.054-.354.016-.115.025-.233.025-.352 0-.242-.045-.438-.138-.59-.09-.148-.25-.222-.483-.222-.207 0-.422.065-.643.2a2.77 2.77 0 00-.64.546c-.203.23-.384.499-.542.806a3.662 3.662 0 00-.338.981l-.627 3.132a.267.267 0 01-.073.135.454.454 0 01-.182.097 1.611 1.611 0 01-.314.059 4.778 4.778 0 01-.478.018c-.185 0-.341-.005-.461-.018a1.156 1.156 0 01-.284-.059.271.271 0 01-.135-.097.177.177 0 01-.018-.135l.821-4.147a3.33 3.33 0 00.086-.736 1.05 1.05 0 00-.14-.564c-.095-.146-.255-.218-.481-.218-.207 0-.422.065-.643.2a2.73 2.73 0 00-.64.546c-.203.23-.384.499-.542.806a3.662 3.662 0 00-.338.981l-.628 3.132a.268.268 0 01-.074.135.426.426 0 01-.176.097 1.55 1.55 0 01-.316.059 4.718 4.718 0 01-.474.018c-.189 0-.347-.005-.467-.018a1.197 1.197 0 01-.286-.059c-.07-.025-.115-.059-.135-.097a.191.191 0 01-.019-.135l1.39-6.922a.271.271 0 01.066-.135.337.337 0 01.155-.093c.068-.025.158-.043.271-.054.111-.014.244-.02.399-.02.161 0 .289.006.391.02a.85.85 0 01.237.054c.056.023.094.054.112.093a.223.223 0 01.012.135l-.226 1.14a3.4 3.4 0 01.435-.556 3.537 3.537 0 011.368-.875c.27-.095.552-.142.841-.142.3 0 .56.038.779.12.218.078.401.189.543.331.142.144.251.311.325.5.075.193.122.398.142.621a3.53 3.53 0 01.454-.557 3.56 3.56 0 011.369-.873c.269-.095.546-.142.828-.142.361 0 .666.05.912.15.246.102.444.24.593.418.149.178.257.388.325.63.068.239.101.498.101.778a5.06 5.06 0 01-.124 1.108l-.852 4.27zM178.624 36.76a.62.62 0 00-.224-.478.831.831 0 00-.295-.151 1.514 1.514 0 00-.433-.054 1.689 1.689 0 00-1.144.444 2.283 2.283 0 00-.438.56 3.471 3.471 0 00-.325.778h1.309c.248 0 .471-.025.667-.072.197-.05.359-.122.488-.219a.966.966 0 00.295-.347c.066-.138.1-.291.1-.46zm-.402 3.075a.824.824 0 00-.059-.302.569.569 0 00-.212-.253 1.447 1.447 0 00-.431-.169 3.077 3.077 0 00-.71-.065h-1.286a3.776 3.776 0 00-.093.875c0 .424.093.736.28.93.185.196.487.295.905.295.275 0 .514-.036.717-.108.205-.072.372-.17.503-.291.133-.122.23-.264.291-.422.063-.163.095-.323.095-.49zm1.945-.06c0 .216-.03.437-.086.658a2.287 2.287 0 01-.271.639 2.52 2.52 0 01-.48.57 2.902 2.902 0 01-.711.456c-.275.131-.596.233-.959.307a6.212 6.212 0 01-1.236.113c-.487 0-.914-.056-1.282-.167a2.394 2.394 0 01-.909-.487 2.056 2.056 0 01-.546-.8 3.004 3.004 0 01-.187-1.096 7.18 7.18 0 01.318-2.035c.12-.392.282-.778.49-1.164.205-.383.469-.726.789-1.03a3.844 3.844 0 011.151-.736c.447-.188.972-.282 1.579-.282.469 0 .871.047 1.209.146.334.097.612.23.833.395.219.165.379.357.485.575.102.215.153.445.153.682 0 .237-.042.456-.128.654a1.7 1.7 0 01-.348.526 2.076 2.076 0 01-.523.392c-.201.11-.42.19-.652.242.239.045.442.117.609.212.167.095.305.207.406.334.104.126.178.268.226.422.045.155.07.313.07.473zM117.444 42.076a.24.24 0 01-.077.135.455.455 0 01-.182.097 1.485 1.485 0 01-.309.059 4.762 4.762 0 01-.479.018c-.185 0-.34-.005-.464-.018a1.144 1.144 0 01-.287-.059c-.068-.025-.113-.059-.135-.097a.165.165 0 01-.012-.135l.544-2.721h-2.737l-.543 2.72a.273.273 0 01-.072.136.457.457 0 01-.181.097 1.475 1.475 0 01-.314.059 4.692 4.692 0 01-.471.018c-.192 0-.348-.005-.469-.018a1.196 1.196 0 01-.287-.059c-.07-.025-.115-.059-.135-.097a.191.191 0 01-.016-.135l1.378-6.913a.285.285 0 01.075-.138.435.435 0 01.178-.094c.079-.027.185-.048.309-.06.129-.013.287-.02.478-.02.19 0 .348.007.47.02.122.012.216.032.286.06.068.024.115.056.136.094.02.039.024.086.013.138l-.519 2.588h2.737l.519-2.588a.285.285 0 01.07-.138.401.401 0 01.176-.094c.079-.027.185-.048.313-.06.129-.013.287-.02.472-.02.192 0 .35.007.469.02.122.012.217.032.287.06.07.024.117.056.14.094a.203.203 0 01.02.138l-1.381 6.913zM142.667 42.085a.288.288 0 01-.065.135.345.345 0 01-.156.093c-.07.022-.158.042-.266.056-.11.011-.244.018-.404.018-.16 0-.291-.007-.392-.018a1.019 1.019 0 01-.235-.056c-.059-.023-.097-.055-.113-.093a.184.184 0 01-.004-.135l.21-1.124c-.104.18-.246.363-.427.546-.183.183-.39.352-.625.503a3.244 3.244 0 01-.762.368c-.276.095-.558.14-.846.14-.361 0-.668-.05-.919-.15a1.6 1.6 0 01-.604-.41 1.618 1.618 0 01-.332-.625 2.856 2.856 0 01-.106-.791c0-.174.011-.355.036-.538.023-.184.052-.372.088-.563l.853-4.285a.276.276 0 01.074-.137.427.427 0 01.179-.093c.079-.023.185-.04.313-.054a5.393 5.393 0 01.941 0c.122.013.217.031.284.054a.25.25 0 01.136.093.204.204 0 01.02.137l-.823 4.154a3.18 3.18 0 00-.077.713c0 .124.011.236.034.336.024.101.061.19.112.261a.484.484 0 00.199.163.698.698 0 00.291.054c.21 0 .431-.068.661-.205.23-.138.449-.327.657-.567.205-.241.39-.523.552-.852.165-.328.287-.684.37-1.065l.587-2.992a.218.218 0 01.072-.137.45.45 0 01.181-.093c.081-.023.185-.04.313-.054a5.48 5.48 0 01.943 0c.12.013.217.031.287.054.07.023.115.056.135.093.02.038.027.085.016.137l-1.388 6.929zM163.844 42.06a.247.247 0 01-.043.146c-.027.043-.081.077-.158.104-.079.03-.18.05-.311.059a5.968 5.968 0 01-.497.016c-.216 0-.39-.005-.521-.016a1.585 1.585 0 01-.307-.045c-.072-.023-.122-.052-.146-.088a.41.41 0 01-.057-.138l-.316-1.674a3.201 3.201 0 00-.162-.553.966.966 0 00-.235-.35.764.764 0 00-.336-.178 1.916 1.916 0 00-.469-.05h-.395l-.566 2.821c-.005.036-.03.072-.07.106a.535.535 0 01-.19.088 1.658 1.658 0 01-.318.059 5.167 5.167 0 01-.453.018c-.181 0-.33-.007-.449-.018a1.24 1.24 0 01-.287-.059.325.325 0 01-.149-.088.15.15 0 01-.029-.106l1.394-6.998c.005-.037.03-.073.07-.106a.543.543 0 01.188-.086c.081-.023.187-.04.313-.052.126-.014.28-.02.46-.02.176 0 .325.006.445.02.122.011.221.03.291.052a.354.354 0 01.153.086c.027.033.036.07.025.105l-.535 2.69h.395c.14 0 .278-.018.413-.054.133-.036.264-.102.39-.194.127-.093.253-.217.382-.37.124-.151.255-.345.383-.582l.844-1.46a.573.573 0 01.117-.136.51.51 0 01.206-.092c.09-.023.205-.04.345-.05.14-.011.316-.015.534-.015.19 0 .343.004.456.015a1.3 1.3 0 01.269.043c.065.018.108.039.128.061.021.025.03.052.03.081 0 .052-.016.12-.05.199a2.996 2.996 0 01-.174.323l-.862 1.369c-.148.244-.3.456-.453.636-.151.18-.305.334-.456.463-.153.126-.302.23-.451.309-.147.081-.289.14-.422.182v.014c.14.054.271.12.393.203.119.084.232.187.334.314.099.126.189.275.27.446.079.17.147.37.206.596l.379 1.575c.02.097.036.176.043.235.006.06.011.108.011.144zM134.293 42.077a.257.257 0 01-.076.135.482.482 0 01-.183.097 1.508 1.508 0 01-.311.06 4.706 4.706 0 01-.476.017 4.51 4.51 0 01-.465-.018 1.214 1.214 0 01-.291-.059c-.07-.024-.115-.058-.138-.097-.025-.038-.029-.083-.013-.135l1.107-5.566h-2.619l-1.108 5.566a.254.254 0 01-.074.135.437.437 0 01-.181.097 1.6 1.6 0 01-.318.06 4.714 4.714 0 01-.474.017c-.191 0-.347-.004-.469-.018a1.128 1.128 0 01-.282-.059c-.068-.024-.11-.058-.131-.097a.186.186 0 01-.016-.135l1.309-6.55c.043-.207.117-.363.226-.469.108-.106.255-.158.442-.158h5.442c.18 0 .302.052.367.158.063.106.077.262.034.47l-1.302 6.55z" fill="#fff"/></svg>