<svg width="42" height="44" fill="none" xmlns="http://www.w3.org/2000/svg"><g clip-path="url(#clip0_2371_5805)"><path d="M21 10.322a3.585 3.585 0 00-1.488.24c-.475.185-.91.469-1.277.835-.367.366-.66.806-.86 1.294a4.079 4.079 0 000 3.09c.2.488.492.929.86 1.295.367.366.802.65 1.277.834.475.185.982.267 1.488.24a3.585 3.585 0 001.488-.24c.475-.184.91-.468 1.277-.834.367-.366.66-.807.86-1.295a4.079 4.079 0 000-3.09 3.928 3.928 0 00-.86-1.294 3.719 3.719 0 00-1.277-.835 3.585 3.585 0 00-1.488-.24zM36 0H6C2.69 0 0 2.819 0 6.286v31.428C0 41.181 2.69 44 6 44h30c3.31 0 6-2.819 6-6.286V6.286C42 2.819 39.31 0 36 0zM21 6.276c2.015 0 3.948.839 5.373 2.331 1.425 1.493 2.225 3.518 2.225 5.63 0 2.11-.8 4.135-2.225 5.628-1.425 1.493-3.358 2.331-5.373 2.331s-3.948-.838-5.373-2.331c-1.425-1.493-2.225-3.518-2.225-5.629 0-2.111.8-4.136 2.225-5.629C17.052 7.115 18.985 6.276 21 6.276zm5.56 16.53c1.574-1.297 2.765-.54 3.196.353.732 1.571-.103 2.328-2.015 3.634-1.604 1.07-3.816 1.493-5.27 1.65l1.22 1.267 4.472 4.685c1.63 1.758-1.032 4.498-2.682 2.809a912.07 912.07 0 00-4.472-4.705l-4.471 4.705c-1.66 1.689-4.313-1.08-2.663-2.81l1.172-1.227c.975-1.022 2.119-2.23 3.3-3.457l1.21-1.267c-1.444-.157-3.685-.56-5.307-1.65-1.903-1.306-2.747-2.053-2.006-3.634.431-.894 1.622-1.65 3.197-.354 0 0 2.128 1.768 5.559 1.768s5.56-1.768 5.56-1.768z" fill="#0073B9"/></g><defs><clipPath id="clip0_2371_5805"><path fill="#fff" d="M0 0h42v44H0z"/></clipPath></defs></svg>