<svg width="32" height="33" fill="none" xmlns="http://www.w3.org/2000/svg"><g clip-path="url(#clip0_2463_6915)"><path d="M16 8.406a2.85 2.85 0 100 5.692 2.85 2.85 0 100-5.692zM27.429.898H4.57A4.576 4.576 0 000 5.47v22.857a4.576 4.576 0 004.571 4.571H27.43A4.576 4.576 0 0032 28.327V5.47A4.576 4.576 0 0027.429.898zM16 5.463a5.79 5.79 0 110 11.578 5.79 5.79 0 010-11.578zm4.236 12.021c1.2-.943 2.107-.393 2.435.257.558 1.143-.078 1.693-1.535 2.643-1.222.779-2.907 1.086-4.015 1.2l.929.922 3.407 3.407c1.243 1.278-.786 3.271-2.043 2.043-.857-.872-2.107-2.122-3.407-3.422L12.6 27.956c-1.264 1.228-3.286-.786-2.029-2.043l.893-.893c.743-.743 1.615-1.622 2.515-2.514l.921-.922c-1.1-.114-2.807-.407-4.043-1.2-1.45-.95-2.093-1.493-1.528-2.643.328-.65 1.235-1.2 2.435-.257 0 0 1.622 1.286 4.236 1.286s4.236-1.286 4.236-1.286z" fill="#fff"/></g><defs><clipPath id="clip0_2463_6915"><path fill="#fff" transform="translate(0 .898)" d="M0 0h32v32H0z"/></clipPath></defs></svg>