<svg width="59" height="59" fill="none" xmlns="http://www.w3.org/2000/svg"><path d="M22.02.172c-2.12.484-3.929 1.948-4.873 3.93-.692 1.463-.669.806-.669 18.264v15.96l-.622.542c-.346.3-.945.956-1.337 1.475-1.728 2.304-2.535 4.92-2.385 7.755.161 2.812 1.175 5.232 3.042 7.214 3.883 4.125 9.899 4.863 14.612 1.786 1.233-.795 1.982-1.498 2.823-2.616 2.996-3.975 3.146-9.345.38-13.551-.242-.358-.887-1.13-1.44-1.706l-1.014-1.049v-16.11c0-17.895.046-16.708-.784-18.322-.495-.968-1.751-2.27-2.673-2.788-1.475-.83-3.48-1.141-5.06-.784zm3.366 2.8c.956.438 1.832 1.302 2.247 2.19l.311.657.058 16.709c.034 9.184.092 16.79.15 16.881.046.104.552.611 1.129 1.141 2.155 1.994 3.134 4.183 3.123 6.983 0 1.545-.22 2.524-.83 3.815-2.639 5.52-9.887 6.868-14.232 2.627-.84-.818-1.67-2.04-2.074-3.02-.899-2.235-.83-5.092.185-7.34.507-1.129 1.728-2.673 2.65-3.353.991-.726.91.922.91-17.47 0-17.4-.011-16.812.519-17.85.253-.483 1.14-1.428 1.636-1.728 1.245-.772 2.893-.864 4.218-.242z" fill="#0073B9"/><path d="M23.22 13.217c-.369.092-.737.495-.864.945-.07.265-.115 5.439-.115 14.22 0 13.044-.012 13.805-.196 13.862-.807.277-1.694.796-2.293 1.349-1.867 1.728-2.305 4.355-1.118 6.706.38.738 1.555 1.902 2.293 2.282 3.468 1.752 7.479-.288 8.136-4.137.242-1.463-.277-3.261-1.291-4.437-.565-.656-1.59-1.36-2.362-1.613l-.577-.184-.057-14.105c-.046-11.443-.092-14.15-.208-14.37-.092-.15-.334-.345-.541-.437-.415-.173-.427-.173-.807-.081zm1.556 31.62c1.095.484 1.843 1.636 1.843 2.812 0 1.106-.714 2.258-1.728 2.766-.219.115-.749.23-1.164.265-.645.046-.864.011-1.383-.23-1.198-.554-1.843-1.534-1.843-2.767 0-.818.115-1.221.541-1.843.311-.438 1.037-.98 1.533-1.13.588-.184 1.66-.115 2.2.127zM40.16.16c-1.245.311-2.282 1.141-2.79 2.247-.61 1.291-.61 3.665-.01 4.979.38.83 1.128 1.555 2.05 1.993.657.311.876.357 1.729.357.852 0 1.072-.046 1.728-.357a4.383 4.383 0 002.052-2.005c.288-.588.31-.76.345-2.305.046-2.05-.115-2.627-1.037-3.641C43.57.725 42.89.322 41.97.126c-.75-.15-1.06-.15-1.81.034zm1.958 2.65c.553.358.784 1.107.726 2.305-.034.876-.092 1.13-.31 1.43-.738 1.048-2.34.933-2.928-.208-.161-.323-.196-.622-.173-1.556.035-1.002.07-1.198.312-1.544.15-.207.437-.46.633-.541.45-.208 1.337-.15 1.74.115zM2.513 3.33c-.554.496-.554 1.256 0 1.752l.368.334h3.987c4.31 0 4.471-.023 4.748-.634.254-.541.173-1.037-.219-1.429l-.357-.357H2.88l-.368.334zM52.604 6.061c-3.422.68-5.877 3.884-5.358 6.983.253 1.533 1.198 3.054 2.466 3.941 1.498 1.072 2.789 1.453 4.944 1.453 1.452 0 1.463 0 1.832-.335.322-.288.38-.415.38-.876 0-.46-.058-.587-.38-.875-.357-.323-.427-.334-1.44-.334-2.513 0-4.114-.75-4.979-2.317-.3-.541-.346-.737-.346-1.486 0-.715.058-.968.312-1.44.887-1.648 2.258-2.363 4.575-2.363 1.532 0 1.947-.173 2.2-.887.15-.438.139-.53-.034-.899-.288-.6-.738-.75-2.178-.738-.657 0-1.544.081-1.994.173zM5.313 9.115c-.404.403-.473.933-.196 1.475.288.542.565.588 3.25.588 2.12 0 2.535-.035 2.811-.196.68-.392.784-1.302.22-1.867l-.358-.357H5.67l-.357.357zM3.03 14.6c-.714.139-1.14 1.141-.76 1.786.38.657.426.669 4.736.669h3.964l.392-.392c.3-.3.392-.484.392-.818 0-.565-.369-1.06-.899-1.21-.403-.104-7.26-.139-7.824-.035zM5.796 20.408c-.472.138-.84.657-.84 1.198 0 .335.091.519.39.819l.393.391h5.231l.392-.391c.3-.3.392-.484.392-.819 0-.564-.369-1.06-.899-1.21-.519-.138-4.552-.138-5.059.012zM3.03 26.122c-.69.139-1.129 1.107-.794 1.752.368.703.46.715 4.862.68l3.987-.035.335-.38c.622-.691.322-1.728-.565-1.982-.403-.104-7.26-.138-7.824-.035zM5.693 32.08c-.796.346-.991 1.28-.404 1.936l.334.38h5.463l.334-.38c.599-.668.392-1.59-.427-1.936-.541-.23-4.782-.219-5.3 0zM3.054 37.762a1.23 1.23 0 00-.888.853c-.103.38-.103.518.058.864.357.726.519.75 4.932.715l3.93-.035.334-.38c.392-.438.45-1.072.15-1.51-.392-.553-.692-.587-4.621-.576-2.017.012-3.768.046-3.895.07z" fill="#0073B9"/></svg>