<svg width="66" height="66" fill="none" xmlns="http://www.w3.org/2000/svg"><path opacity=".939" fill-rule="evenodd" clip-rule="evenodd" d="M42.346 11.28c6.403-.505 11.28 1.944 14.631 7.347 2.123 4.306 2.295 8.689.516 13.149-3.176 6.112-8.225 8.883-15.147 8.314-6.982-1.31-11.128-5.457-12.439-12.44-.568-6.403 1.86-11.28 7.283-14.63a17.11 17.11 0 015.157-1.74zm.258 2.191a15.421 15.421 0 00-3.48 1.096c.134.247.284.483.451.709.258 1.245-.236 1.782-1.482 1.611a17.94 17.94 0 01-.967-1.096 10.623 10.623 0 00-2.772 2.772c.379.307.744.63 1.096.966.186.608.036 1.102-.451 1.483-.708.175-1.331.025-1.87-.451a12.232 12.232 0 00-1.095 4.125 4.238 4.238 0 011.676.193c.588 1.584.03 2.207-1.676 1.87a12.232 12.232 0 001.096 4.124c.247-.134.483-.284.709-.45 1.245-.259 1.782.235 1.611 1.482-.352.337-.717.659-1.096.966a10.623 10.623 0 002.772 2.772c.307-.379.63-.744.967-1.096.607-.186 1.101-.036 1.482.451.175.708.025 1.332-.451 1.87 1.31.606 2.686.972 4.125 1.095a4.24 4.24 0 01.193-1.676c1.584-.587 2.207-.029 1.87 1.676a12.228 12.228 0 004.124-1.096 3.097 3.097 0 01-.644-1.417c.256-.858.815-1.159 1.676-.903.337.352.66.718.966 1.096a10.623 10.623 0 002.772-2.772c-.378-.307-.744-.63-1.096-.967-.186-.607-.035-1.101.451-1.482.708-.175 1.332-.024 1.87.451a12.232 12.232 0 001.095-4.125 4.238 4.238 0 01-1.676-.193c-.587-1.584-.029-2.207 1.676-1.87a12.232 12.232 0 00-1.096-4.124 6.06 6.06 0 00-.709.451c-1.245.258-1.782-.236-1.61-1.483.351-.337.717-.659 1.095-.966a10.623 10.623 0 00-2.772-2.772c-.307.379-.63.744-.966 1.096-.861.256-1.42-.045-1.676-.902.092-.524.307-.997.644-1.418a12.228 12.228 0 00-4.125-1.096 4.24 4.24 0 01-.193 1.676c-1.584.588-2.207.029-1.87-1.676h-.644zm1.29 11.344a.902.902 0 00-.452.515c-.113 1.16.381 1.524 1.483 1.096.518-1.091.174-1.629-1.032-1.611z" fill="#0073B9"/><path opacity=".923" fill-rule="evenodd" clip-rule="evenodd" d="M49.823 18.756c1.294.123 1.66.767 1.096 1.933l-3.61 3.61c.42 1.616.012 2.97-1.224 4.06-1.703.827-3.185.547-4.447-.838a4.195 4.195 0 01-.387-.902c-.06-.778-.06-1.552 0-2.32a31.096 31.096 0 01-2.32-2.45c-.284-.892.038-1.45.966-1.675.264.095.521.202.774.322l2.191 2.192a9.588 9.588 0 012.578.064l4.383-3.996zm-5.93 6.058a.901.901 0 00-.45.516c-.114 1.159.38 1.524 1.482 1.096.518-1.092.174-1.629-1.031-1.611z" fill="#0073B9"/><path opacity=".96" fill-rule="evenodd" clip-rule="evenodd" d="M10.764 43.248c3.094-.021 6.188 0 9.281.065a.604.604 0 01.451.45c.065.73.086 1.46.065 2.192 1.85-.43 3.698-.881 5.543-1.353a7.653 7.653 0 012.449-.13 915.865 915.865 0 0116.758 4.384l1.031.515c.328.372.694.694 1.096.967 3.424-1.938 6.84-3.893 10.248-5.865 2.323-.787 4.149-.164 5.478 1.87.978 2.65.227 4.649-2.256 5.993a1018.826 1018.826 0 00-16.757 9.668 7.798 7.798 0 01-2.192.774c-6.058.086-12.117.086-18.176 0a9.62 9.62 0 01-3.093-1.225 12.923 12.923 0 00-.194 1.805.604.604 0 01-.45.45c-3.095.087-6.188.087-9.282 0a.604.604 0 01-.451-.45 9.342 9.342 0 01-.065-1.547c-2.578.021-5.156 0-7.734-.065-.389-.197-.56-.519-.516-.966-.045-.448.127-.77.516-.967 2.578-.065 5.156-.086 7.734-.065V47.373c-2.578.022-5.156 0-7.734-.064-.389-.197-.56-.52-.516-.967-.045-.447.127-.77.516-.967 2.578-.064 5.156-.086 7.734-.064-.021-.518 0-1.033.065-1.547a.901.901 0 01.45-.516zm1.547 2.063h6.187v16.5h-6.187v-16.5zm46.535 1.031c1.653-.087 2.49.687 2.514 2.32-.121.478-.357.886-.71 1.225a1890.893 1890.893 0 01-18.175 10.441 5.345 5.345 0 01-1.805.387c-5.2.086-10.398.086-15.598 0a9.6 9.6 0 01-1.546-.258 42.804 42.804 0 01-2.836-1.353c-.172-3.64-.172-7.27 0-10.893a608.61 608.61 0 015.994-1.482 4.673 4.673 0 011.74-.065c5.464 1.435 10.92 2.896 16.371 4.383 1.248.864 1.442 1.917.58 3.158a2.583 2.583 0 01-1.482.645 669.814 669.814 0 01-12.375-3.287c-1.418-.301-1.955.236-1.612 1.611a.99.99 0 00.71.451c4.404 1.232 8.83 2.371 13.277 3.416 2.516-.238 3.934-1.613 4.254-4.125a.637.637 0 00-.13-.322c3.632-2.066 7.241-4.15 10.829-6.252z" fill="#0073B9"/><circle cx="44.197" cy="25.34" r="17.518" stroke="#0073B9" stroke-width="1.5"/></svg>