<svg width="43" height="46" fill="none" xmlns="http://www.w3.org/2000/svg"><path d="M3.022 3.664C0 6.837 0 11.943 0 22.154v1.805c0 10.212 0 15.318 3.022 18.49 3.023 3.172 7.889 3.172 17.618 3.172h1.72c9.73 0 14.595 0 17.617-3.172C43 39.277 43 34.171 43 23.96v-1.805c0-10.211 0-15.317-3.023-18.49C36.955.492 32.09.492 22.36.492h-1.72c-9.73 0-14.595 0-17.618 3.172zM7.256 14.22h4.91c.16 8.612 3.78 12.26 6.646 13.012V14.22h4.623v7.428c2.83-.32 5.805-3.705 6.808-7.428h4.623a14.705 14.705 0 01-2.214 5.37 13.944 13.944 0 01-4.075 3.994 14.282 14.282 0 014.645 3.881 15.12 15.12 0 012.719 5.54h-5.089a9.35 9.35 0 00-2.742-4.532 8.653 8.653 0 00-4.675-2.181v6.713h-.555c-9.8 0-15.39-7.051-15.624-18.785" fill="#0073B9"/></svg>