<svg width="32" height="33" fill="none" xmlns="http://www.w3.org/2000/svg"><g clip-path="url(#clip0_2463_6913)"><path d="M2.25 3.148C0 5.398 0 9.018 0 16.258v1.28C0 24.78 0 28.4 2.25 30.65c2.249 2.25 5.87 2.25 13.11 2.25h1.28c7.24 0 10.861 0 13.11-2.25C32 28.4 32 24.78 32 17.54v-1.28c0-7.241 0-10.862-2.25-13.111C27.502.898 23.88.898 16.64.898h-1.28c-7.24 0-10.861 0-13.11 2.25zm3.15 7.484h3.653c.12 6.106 2.814 8.693 4.947 9.226v-9.226h3.44v5.266c2.107-.226 4.32-2.626 5.067-5.266h3.44a10.162 10.162 0 01-4.68 6.64 10.525 10.525 0 015.48 6.68H22.96a6.582 6.582 0 00-5.52-4.76v4.76h-.413c-7.294 0-11.454-5-11.627-13.32" fill="#fff"/></g><defs><clipPath id="clip0_2463_6913"><path fill="#fff" transform="translate(0 .898)" d="M0 0h32v32H0z"/></clipPath></defs></svg>