<svg width="43" height="44" fill="none" xmlns="http://www.w3.org/2000/svg"><g clip-path="url(#clip0_2371_5806)" fill="#0073B9"><path fill-rule="evenodd" clip-rule="evenodd" d="M36.857 0H6.143C2.755 0 0 2.819 0 6.286v31.428C0 41.181 2.755 44 6.143 44h30.714C40.245 44 43 41.181 43 37.714V6.286C43 2.819 40.245 0 36.857 0zm-8.395 17.198a8.154 8.154 0 00-1.075-.064c-5.28 0-9.451 4.04-9.445 9.004 0 .83.125 1.632.354 2.386-.354.03-.692.047-1.046.047-1.394 0-2.503-.287-3.897-.567l-3.886 1.994 1.103-3.427c-2.777-1.994-4.452-4.573-4.452-7.695 0-5.415 5-9.671 11.126-9.671 5.463 0 10.27 3.409 11.218 7.993zm-.366.55c5 0 9.452 3.707 9.452 8.262 0 2.56-1.657 4.835-3.898 6.555l.846 2.841-3.051-1.713c-1.126.28-2.246.579-3.349.579-5.291 0-9.452-3.707-9.452-8.262 0-4.555 4.155-8.263 9.452-8.263z"/><path d="M13.621 16.882c-.828 0-1.674-.567-1.674-1.415 0-.865.846-1.427 1.674-1.427.846 0 1.395.567 1.395 1.427 0 .854-.549 1.415-1.395 1.415zM21.416 14.04c.828 0 1.383.567 1.383 1.427 0 .848-.555 1.415-1.383 1.415-.846 0-1.674-.567-1.674-1.415.005-.86.834-1.427 1.674-1.427zM25.027 24.577c-.554 0-1.102-.567-1.102-1.146 0-.567.554-1.129 1.102-1.129.846 0 1.395.568 1.395 1.13 0 .584-.555 1.145-1.395 1.145zM31.148 24.577c-.555 0-1.103-.567-1.103-1.146 0-.567.554-1.129 1.103-1.129.828 0 1.394.568 1.394 1.13.006.584-.566 1.145-1.394 1.145z"/></g><defs><clipPath id="clip0_2371_5806"><path fill="#fff" d="M0 0h43v44H0z"/></clipPath></defs></svg>