<svg width="32" height="33" fill="none" xmlns="http://www.w3.org/2000/svg"><g clip-path="url(#clip0_2463_6917)" fill="#fff"><path fill-rule="evenodd" clip-rule="evenodd" d="M27.429.898H4.57A4.576 4.576 0 000 5.47v22.857a4.576 4.576 0 004.571 4.571H27.43A4.576 4.576 0 0032 28.327V5.47A4.576 4.576 0 0027.429.898zM21.18 13.406a6.214 6.214 0 00-.8-.047c-3.929 0-7.033 2.939-7.03 6.55 0 .603.094 1.186.264 1.734a9.51 9.51 0 01-.778.034c-1.037 0-1.862-.208-2.9-.412l-2.892 1.45.821-2.492c-2.067-1.45-3.313-3.326-3.313-5.597 0-3.938 3.721-7.033 8.28-7.033 4.065 0 7.642 2.479 8.348 5.813zm-.272.4c3.72 0 7.034 2.696 7.034 6.009 0 1.862-1.234 3.516-2.9 4.767l.629 2.066-2.271-1.245c-.838.204-1.671.42-2.492.42-3.938 0-7.034-2.696-7.034-6.008 0-3.313 3.092-6.01 7.034-6.01z"/><path d="M10.137 13.176c-.617 0-1.246-.412-1.246-1.029 0-.63.63-1.037 1.246-1.037.63 0 1.037.412 1.037 1.037 0 .621-.408 1.03-1.037 1.03zM15.937 11.11c.617 0 1.03.412 1.03 1.037 0 .617-.413 1.03-1.03 1.03-.629 0-1.246-.413-1.246-1.03.005-.625.621-1.037 1.246-1.037zM18.625 18.773c-.412 0-.82-.413-.82-.834 0-.412.412-.82.82-.82.63 0 1.038.412 1.038.82 0 .425-.413.834-1.038.834zM23.18 18.773c-.413 0-.821-.413-.821-.834 0-.412.412-.82.82-.82.617 0 1.038.412 1.038.82.005.425-.42.834-1.037.834z"/></g><defs><clipPath id="clip0_2463_6917"><path fill="#fff" transform="translate(0 .898)" d="M0 0h32v32H0z"/></clipPath></defs></svg>