<svg width="32" height="32" fill="none" xmlns="http://www.w3.org/2000/svg"><g clip-path="url(#clip0_2001_39)"><path d="M32 24a3.556 3.556 0 01-3.556 3.556H3.556A3.556 3.556 0 010 24V8a3.556 3.556 0 013.556-3.556h24.888A3.556 3.556 0 0132 8v16z" fill="#DE2910"/><path d="M9.899 7.98l.654.316.523-.503-.098.72.64.343-.715.128-.128.715-.343-.64-.72.098.503-.523L9.9 7.98zm4.146 2.614l-.316.653.503.525-.72-.1-.342.64-.128-.715-.716-.128.641-.343-.1-.719.525.503.653-.316zm-.85 3.359l.238.686.726.015-.579.438.211.697-.596-.416-.597.416.21-.697-.579-.438.727-.015.239-.686zm-3.296 2.916l.654.316.523-.503-.098.72.64.343-.715.128-.128.715-.343-.64-.72.098.503-.523-.316-.654zM6.222 9.734l.826 2.374 2.512.052-2.003 1.518.728 2.406-2.063-1.436-2.063 1.436.728-2.406-2.003-1.518 2.512-.052.826-2.374z" fill="#FFDE02"/></g><defs><clipPath id="clip0_2001_39"><path fill="#fff" d="M0 0h32v32H0z"/></clipPath></defs></svg>