<svg width="32" height="32" fill="none" xmlns="http://www.w3.org/2000/svg"><g clip-path="url(#clip0_2001_81)"><path d="M32 24a3.556 3.556 0 01-3.556 3.556H3.556A3.556 3.556 0 010 24V8a3.556 3.556 0 013.556-3.556h24.888A3.556 3.556 0 0132 8v16z" fill="#E8112D"/><path d="M16.42 10.654c.013-.929.836-1.568.87-2.805.59.741-.384 2.13-.038 2.937.158-.915 1.069-1.418 1.298-2.634.467.825-.713 2.045-.498 2.894.298-.88 1.278-1.233 1.694-2.399.331.888-1.024 1.908-.944 2.78.432-.82 1.455-1.016 2.049-2.103.189.928-1.311 1.723-1.368 2.599.555-.744 1.597-.778 2.353-1.758.041.947-1.565 1.496-1.758 2.352.665-.648 1.698-.518 2.598-1.368-.106.942-1.778 1.234-2.104 2.05.759-.537 1.76-.247 2.78-.946-.25.914-1.948.942-2.396 1.695.832-.41 1.774.032 2.894-.498-.392.862-2.075.624-2.636 1.299.887-.276 1.75.31 2.938-.04-.524.792-2.146.292-2.805.87.918-.133 1.679.58 2.905.421-.639.7-2.164-.047-2.905.42.929.013 1.568.837 2.803.87-.741.592-2.13-.386-2.936-.038.917.158 1.419 1.069 2.636 1.298-.825.467-2.046-.713-2.896-.498.88.298 1.235 1.278 2.399 1.694-.887.333-1.906-1.024-2.781-.944.823.432 1.02 1.455 2.104 2.049-.93.189-1.723-1.311-2.6-1.368.745.555.778 1.597 1.76 2.353-.947.041-1.5-1.565-2.353-1.758.648.665.517 1.698 1.368 2.598-.943-.106-1.235-1.778-2.05-2.104.536.759.245 1.76.945 2.78-.915-.25-.941-1.948-1.694-2.396.411.832-.033 1.774.498 2.894-.863-.392-.625-2.075-1.298-2.636.274.887-.31 1.75.039 2.938-.791-.524-.292-2.146-.87-2.805.133.918-.58 1.679-.421 2.905-.7-.639.047-2.164-.42-2.905-.013.929-.836 1.568-.87 2.803-.592-.74.384-2.13.038-2.936-.158.917-1.07 1.419-1.298 2.636-.467-.825.714-2.046.498-2.894-.3.878-1.279 1.233-1.695 2.397-.332-.887 1.025-1.906.945-2.781-.433.823-1.456 1.02-2.049 2.104-.189-.93 1.312-1.723 1.368-2.598-.555.743-1.596.776-2.352 1.758-.042-.947 1.565-1.5 1.758-2.353-.665.648-1.699.517-2.599 1.368.107-.943 1.78-1.235 2.104-2.05-.758.536-1.759.245-2.78.945.252-.915 1.95-.941 2.398-1.694-.833.411-1.775-.032-2.894.498.393-.863 2.074-.625 2.635-1.298-.887.274-1.749-.31-2.937.038.522-.79 2.146-.292 2.804-.87-.919.134-1.678-.58-2.906-.42.64-.699 2.165.047 2.906-.42-.928-.013-1.567-.836-2.804-.87.741-.592 2.13.384 2.937.038-.916-.158-1.418-1.07-2.634-1.298.825-.468 2.044.714 2.894.498-.88-.3-1.233-1.279-2.399-1.695.888-.332 1.908 1.025 2.78.945-.822-.433-1.016-1.456-2.104-2.049.93-.189 1.724 1.312 2.6 1.368-.744-.555-.778-1.596-1.759-2.352.947-.041 1.497 1.565 2.353 1.758-.648-.665-.518-1.699-1.369-2.599.942.107 1.235 1.78 2.05 2.104-.537-.758-.246-1.758-.945-2.78.914.252.942 1.95 1.695 2.398-.41-.833.032-1.775-.498-2.893.862.392.624 2.073 1.298 2.634-.275-.887.31-1.749-.039-2.937.791.522.292 2.146.87 2.804-.134-.919.58-1.678.42-2.906.7.64-.047 2.165.42 2.906z" fill="#FFCC4D"/><path d="M16 20.36A4.361 4.361 0 1016 11.64 4.361 4.361 0 0016 20.36z" fill="#E8112D"/><path d="M16 11.956c1.113 0 2.113.477 2.809 1.239-1.093.11-2.019.368-2.809.76-.79-.392-1.717-.65-2.808-.76A3.792 3.792 0 0116 11.956zm-.287 2.153c-.087.049-.173.1-.258.152-.708-.376-1.557-.618-2.566-.69a3.38 3.38 0 01.145-.19c1.048.093 1.932.343 2.679.728zm.577 0c.088.05.173.1.257.152.709-.376 1.557-.618 2.566-.69a3.318 3.318 0 00-.144-.19c-1.049.093-1.933.343-2.68.728zm-3.528-.343c-.04.066-.079.132-.115.2.939.022 1.726.238 2.373.596.068-.051.137-.1.207-.149-.676-.369-1.493-.599-2.465-.647zm-.116 3.785c-.327-.563-.448-1.095-.448-1.792 0-.569.123-1.106.345-1.588.909-.007 1.669.192 2.289.537-.918.752-1.664 1.634-2.186 2.843zm1.805 1.678c-.171-.066-.357-.251-.515-.34.09-1.429.758-2.604 1.69-3.592.07.067.136.135.2.207-.866 1.012-1.422 2.326-1.375 3.725zm4.79-5.463c.04.065.078.132.115.2-.94.022-1.728.238-2.374.596a4.813 4.813 0 00-.207-.149c.677-.369 1.493-.599 2.466-.647zM19.356 17.552c.326-.563.448-1.096.448-1.793 0-.569-.124-1.106-.346-1.588-.908-.006-1.669.192-2.29.537.92.752 1.668 1.635 2.188 2.844zM16 15.829c.682 1.097.812 2.297.775 3.653-.296.073-.456.08-.775.08-.32 0-.48-.007-.775-.08-.038-1.286.093-2.514.775-3.653zm1.546 3.4c.17-.065.36-.196.519-.284-.09-1.428-.76-2.66-1.69-3.647a4.372 4.372 0 00-.2.207c.868 1.011 1.418 2.325 1.37 3.724zm-2.148-4.135a3.844 3.844 0 00-.26-.197c-.965.855-1.681 1.849-2.083 3.196.149.17.146.295.322.435.249-1.416 1.055-2.5 2.021-3.434zm1.205 0c.08-.066.172-.137.26-.197.964.855 1.678 1.867 2.08 3.214-.148.17-.17.277-.348.418-.247-1.417-1.026-2.5-1.992-3.435zM16 14.27c.048.029.212.132.254.16-.065.04-.213.14-.254.167a6.414 6.414 0 00-.254-.168c.042-.027.206-.131.254-.159zm-.481.318a6.02 6.02 0 00-.2.156c.092.061.218.156.258.188.049-.042.145-.127.199-.167a3.598 3.598 0 00-.257-.177zm.962 0c.065.049.163.124.2.156a4.85 4.85 0 00-.258.188c-.048-.042-.145-.127-.2-.167a4.1 4.1 0 01.258-.177zm-.481.354c.042.036.165.145.198.178a2.92 2.92 0 00-.198.192 2.708 2.708 0 00-.197-.192c.032-.033.156-.141.197-.178z" fill="#FFCC4D"/></g><defs><clipPath id="clip0_2001_81"><path fill="#fff" d="M0 0h32v32H0z"/></clipPath></defs></svg>