<svg width="32" height="32" fill="none" xmlns="http://www.w3.org/2000/svg"><g clip-path="url(#clip0_2001_367)"><path d="M32 24a3.556 3.556 0 01-3.556 3.556H3.556A3.556 3.556 0 010 24V8a3.556 3.556 0 013.556-3.556h24.888A3.556 3.556 0 0132 8v16z" fill="#00AFCA"/><path d="M16.92 17.225a2.547 2.547 0 100-5.093 2.547 2.547 0 000 5.093z" fill="#FFCC4D"/><path d="M16.922 11.94c.15-.002.206-.097.206-.21 0-.151-.206-1.33-.206-1.33s-.21 1.179-.21 1.33c0 .113.057.21.21.21zm0 5.491c-.153.001-.21.096-.21.209 0 .152.21 1.315.21 1.315s.206-1.164.206-1.315c0-.112-.055-.209-.206-.209zm-.712-.107c-.147-.038-.224.04-.254.149-.039.146-.144 1.339-.144 1.339s.507-1.086.546-1.232c.03-.109 0-.217-.148-.256zm1.422-5.305c.148.039.228-.04.257-.148.039-.146.137-1.324.137-1.324s-.5 1.069-.54 1.217c-.03.108 0 .216.146.255zm-2.083 5.029c-.132-.074-.227-.02-.283.08-.076.13-.486 1.254-.486 1.254s.77-.916.846-1.047c.057-.099.056-.21-.077-.287zm2.746-4.756c.133.076.23.02.286-.077.077-.131.476-1.242.476-1.242s-.761.903-.837 1.034c-.055.098-.055.209.075.285zm-3.313 4.321c-.108-.105-.214-.078-.294.002-.107.108-.795 1.087-.795 1.087s.983-.686 1.09-.792c.08-.08.108-.19 0-.297zm3.884-3.884c.108.107.216.08.296 0 .107-.107.781-1.078.781-1.078s-.968.677-1.075.785c-.08.08-.109.186-.002.293zm-4.317 3.316c-.078-.13-.187-.13-.286-.073-.131.075-1.049.843-1.049.843s1.127-.407 1.257-.483c.099-.056.154-.154.078-.287zm4.755-2.745c.077.132.19.133.286.077.132-.077 1.034-.84 1.034-.84s-1.11.403-1.242.479c-.098.057-.153.152-.078.284zm-5.028 2.085c-.041-.146-.148-.174-.257-.146-.146.04-1.231.544-1.231.544s1.192-.102 1.338-.141c.11-.03.189-.11.15-.257zm5.303-1.422c.04.147.147.178.257.148.146-.039 1.216-.542 1.216-.542s-1.177.101-1.325.14c-.108.029-.187.108-.148.254zm-5.397.714c-.002-.152-.097-.207-.21-.207-.15 0-1.33.207-1.33.207s1.18.21 1.33.21c.113 0 .21-.058.21-.21zm5.492 0c0 .152.096.21.209.21.152 0 1.314-.21 1.314-.21s-1.163-.207-1.314-.207c-.113 0-.21.055-.21.207zm-5.398-.709c.037-.147-.04-.224-.15-.253-.146-.04-1.338-.145-1.338-.145s1.085.507 1.23.546c.11.03.218 0 .258-.148zm5.304 1.421c-.04.148.039.228.147.257.147.04 1.325.137 1.325.137s-1.07-.5-1.217-.54c-.109-.028-.216 0-.255.146zm-5.03-2.081c.073-.132.019-.228-.08-.284-.13-.075-1.255-.486-1.255-.486s.917.77 1.047.846c.099.057.21.055.287-.076zm4.756 2.745c-.077.133-.021.23.076.287.13.076 1.243.475 1.243.475s-.904-.76-1.035-.836c-.098-.056-.209-.056-.284.074zm-4.322-3.313c.106-.108.078-.214-.002-.294-.107-.106-1.087-.794-1.087-.794s.686.982.792 1.089c.08.08.19.108.297 0zm3.885 3.884c-.108.109-.08.217 0 .296.106.108 1.078.781 1.078.781s-.678-.968-.785-1.075c-.08-.08-.187-.11-.293-.002zm-3.316-4.318c.129-.077.13-.187.074-.285-.076-.131-.844-1.05-.844-1.05s.407 1.127.483 1.258c.056.098.155.153.287.077zm2.746 4.756c-.132.077-.134.188-.078.286.077.131.84 1.033.84 1.033s-.403-1.11-.479-1.242c-.057-.097-.153-.153-.283-.077zm-2.087-5.03c.146-.04.175-.147.146-.256-.039-.146-.544-1.231-.544-1.231s.102 1.193.142 1.339c.029.109.109.188.256.149zm1.423 5.305c-.148.04-.178.148-.149.257.04.146.543 1.216.543 1.216s-.102-1.178-.141-1.324c-.028-.11-.108-.188-.253-.15z" fill="#FFCC4D"/><path d="M19.419 21.018l-.033.014-.037.005-.027.006-.05-.011-.023-.009-.02-.01-.024-.015-.04-.028-.037-.03-.02-.014-.026-.01-.018-.005h-.026l-.1.209-.02.03-.02.023-.02.015-.018.015-.026.01h-.024l-.022-.01-.032-.015-.008-.015-.011-.015-.01-.02-.011-.023-.015-.073-.029.024-.027.034-.056.084-.032.043-.035.034-.019.02-.024.016-.024.01-.03.01h-.013l-.026.005-.024-.006-.019-.008-.057-.069-.064-.068-.043.068-.051.058-.024.024-.022.024-.024.02-.046.024-.024.006h-.023l-.021-.006-.02-.01-.014-.016-.018-.023a2.271 2.271 0 00-.04-.107l-.006-.025-.009-.019-.01-.01h-.011l-.131.216-.02.018-.034.015-.076.02h-.046l-.034-.01-.011-.006-.014-.015-.004-.009v-.02l.018-.215-.014.006-.038.018c-.035.037-.07.074-.103.112l-.043.054-.054.046-.051.038-.029.016-.058.009-.024-.005-.01-.004-.01-.01-.006-.016v-.015l.005-.062.015-.099-.01-.058-.02-.033-.03.043-.047.063c-.04.044-.08.087-.123.128a1.217 1.217 0 00-.068.05l-.053.018-.011-.005h-.015l-.011-.01-.003-.005-.011-.015-.004-.015v-.018l-.005-.025.005-.185a7.37 7.37 0 01-.27.175l-.033.015-.038.02a2.093 2.093 0 00-.108.028h-.035l-.033-.005-.03-.01.015-.04.03-.068.018-.028.021-.03.019-.029.05-.049.054-.038.062-.04.064-.03.074-.023.073-.019.166-.03.083-.01c.245-.014.491-.016.736-.014l.27-.015.083-.01.155-.03.075-.02.069-.028.064-.03.104-.078.047-.055-.05-.097.04-.005.038-.009.04-.02.033-.024.014-.01.016-.015.01-.019.011-.014.004-.02v-.034l-.011-.02.084-.014.088-.01.094-.005h.097c.136.005.27.013.406.024.204.024.41.044.615.064l.184.01v.067l-.003.03-.011.029-.01.029-.01.024-.014.02c-.017.02-.036.039-.054.057l-.044.029-.047.02-.047.01-.054.01-.104-.01-.054-.015-.047-.025-.051-.024-.038-.035-.039-.038v.084c-.007.054-.016.107-.024.161l-.018.051-.011.02-.014.015-.01.015-.013.009zm-3.927-.46l.11.05c.023-.02.046-.037.07-.054l.043-.023.039-.025.146-.059.127-.059.064-.024.108-.057.044-.03c.11-.073.221-.144.332-.214l.097-.068.074-.059c.073-.066.144-.133.215-.2l.03-.02.033-.02c.04-.02.081-.04.123-.058l.082-.028c.166-.046.334-.081.503-.108l.517-.063.23-.039c.056-.016.113-.03.17-.044l.06-.073.094-.103.064-.063.07-.06.084-.062.097-.064.148-.088c.106-.053.21-.106.315-.161.187-.087.371-.18.554-.274l.087-.059.024-.073.035-.073.044-.073.112-.151c.052-.055.102-.11.151-.168.06-.058.123-.115.186-.17l.095-.077.047-.035.05-.034c.036-.02.071-.04.108-.059l.054-.024.052-.02.115-.03.057-.003.054-.005.057.005.054.009-.003.059-.014.057-.044.123-.036.063-.044.064-.053.068-.064.068.05-.005.044-.01.035-.01.032-.015.064-.02.092-.01.005.035v.034l-.005.034-.009.03-.014.029-.02.03-.02.022-.023.025a6.834 6.834 0 01-.205.19l.057.006.13.038.046.01-.057.045c-.045.03-.09.06-.136.088l-.157.088-.078.049-.078.054-.073.059.033.004.045.02.02.005.018.01.016.004.014-.004-.097.054a6.68 6.68 0 00-.18.088l-.075.044-.014.016-.009.015-.01.014.003.02.01.015.02.014.017.016-.007.018-.01.017-.02.014-.017.015-.047.023-.057.025-.111.039-.07.035.098.096-.035.034-.033.025-.03.015-.034.015-.068.01h-.096l.011.044.014.043.02.099a4 4 0 01-.185.136l-.113.073-.125.073-.075.034-.073.034a4.176 4.176 0 01-.25.088l-.189.04-.104.015c.113.004.226.006.339.005l.277-.03.122-.024.107-.029c.072-.024.14-.05.21-.078l.135-.062.134-.074.125-.08.133-.077-.08-.039-.076-.024-.037-.017-.083-.038-.046-.025.039-.028.047-.02.05-.018c.06-.015.119-.028.177-.04.077-.008.153-.018.23-.029l.097-.01.074-.018.02-.01.014-.016-.004-.005-.01-.01-.014-.006-.02-.008-.053-.011-.07-.01-.067-.005-.068-.01-.06-.015-.037-.015.478-.107.083-.025c.037-.013.072-.028.108-.043l.047-.03.02-.02-.005-.004-.009-.01-.045-.01-.062-.005h-.075c-.05-.004-.1-.008-.151-.01l-.062-.01-.04-.01.069-.028c.103-.032.208-.062.313-.089l.18-.059.093-.039.043-.024.04-.024.014-.015.016-.02.014-.014.005-.015-.005-.015-.014-.01-.015-.004h-.136l-.064.003h-.087l-.025-.003-.017-.01-.022-.01c.178-.118.358-.234.538-.348l.14-.098c.038-.031.075-.064.112-.097l.043-.049.04-.049.03-.053.023-.053.015-.06v-.063h-.033l-.035.005-.076.029a4.76 4.76 0 01-.206.122l-.039.025-.045.02-.044.014-.04.01-.038.005h-.045l-.038-.015.118-.088c.095-.08.19-.163.282-.244.104-.099.204-.2.303-.303l.14-.157c.042-.055.085-.108.128-.162.035-.05.07-.1.102-.15l.011-.02.004-.014-.004-.02-.005-.015-.006-.016-.014-.01-.015-.015-.014-.005-.019-.01-.021-.005h-.038l-.02.006-.025.003-.014.016-.02.015c-.1.1-.199.201-.296.304l-.118.111c-.078.068-.156.135-.235.201-.037.025-.074.05-.112.073l-.108.055.033-.03c.035-.034.07-.067.104-.102.125-.144.245-.293.36-.445l.227-.317.06-.107.06-.097.05-.09.038-.083.024-.067.005-.024v-.04l-.005-.015-.018-.029-.01-.01-.017-.004-.027-.016-.037-.01h-.067l-.018.006-.014.004-.02.01-.015.015-.04.034a3.813 3.813 0 00-.127.162 9.17 9.17 0 01-.308.45l-.123.146-.063.064-.067.059.087-.163.137-.287.089-.21.038-.108.068-.22a4.31 4.31 0 00.045-.214l.016-.201-.007-.049-.004-.044-.005-.045-.014-.057-.011-.016-.024-.024-.033-.014-.036-.01h-.033l-.031.005-.01.005-.013.004-.006.01c-.088.277-.154.56-.23.84l-.088.235-.073.141-.045.063.03-.14c.013-.082.026-.163.037-.245l.02-.2.006-.084a2.995 2.995 0 00-.01-.127l-.01-.049-.014-.04-.02-.029-.01-.01-.03-.009-.014-.005h-.016l-.015.005-.04.01-.038.02c-.03.15-.066.3-.107.45a5.461 5.461 0 01-.205.55c-.052.11-.108.22-.167.327l-.107.186-.117.175c-.078.11-.159.217-.242.322-.082.092-.166.183-.25.274a10.68 10.68 0 01-.27.255c-.094.078-.189.154-.286.228-.118.086-.239.167-.363.245l-.215.126-.342.157-.352.127-.291.088-.303.068-.15.025-.31.039-.156.01-.016.005-.015.005-.03.015-.032.024a4.198 4.198 0 00-.113.102l-.078.079-.284.316-.107.108-.126.097-.05.034-.05.03-.106.049c-.165.067-.333.129-.5.195l-.043.024-.039.02-.028.02-.055.054-.015.024-.01.024-.004.034v.025" fill="#FFCC4D"/><path d="M17.28 20.778l.083.01.04.015.009.005v.005h-.01l-.01.005-.078.015h-.062l-.205-.015-.518-.01c-.137.002-.274.005-.41.01-.122.009-.242.018-.362.03l-.094.014-.082.019-.058.02-.025.01-.02.015.01-.05.02-.05-.068.02-.059.03-.023.015-.02.02-.015.022-.004.025-.014-.034-.01-.03a.742.742 0 00-.011-.063l.014-.077.016-.025.009-.02.02-.023.04-.039.053-.035.06-.033a.446.446 0 00.101.043c.035.003.07 0 .104-.01.055.048.195.039.215-.048a.213.213 0 000-.098l.058-.005.069-.01.15-.04.08-.015.073-.018.068-.01.058-.005-.024.02-.127.097-.048.034.062.016.054.01-.115.131-.03.04.038.014.039.01.044.01h.088l.088-.019.034-.02.04.02.04.015c.024.007.05.015.076.02.06.006.12.013.182.018h.368m-.445-1.486l-.044.088-.05.113a2.32 2.32 0 00-.072.14l-.025.026-.057-.05-.064-.044-.069-.034-.072-.029-.157-.04-.078-.014a6.017 6.017 0 00-.254-.024 5.26 5.26 0 01-.337-.016l-.156-.019-.088-.015-.083-.019-.087-.03-.074-.038-.054-.036-.112-.082c-.163-.154-.325-.31-.493-.46l-.097-.067-.045-.02-.046-.014-.082-.019a3.778 3.778 0 00-.146-.049 3.643 3.643 0 00-.138-.063 2.824 2.824 0 01-.234-.162l-.049-.045-.097-.097-.093-.102c-.154-.188-.298-.381-.449-.572a8.791 8.791 0 00-.22-.224l-.062-.058-.064-.054-.14-.102-.015.005-.016.015-.015.02c-.01.021-.016.045-.023.068l-.006.02-.035-.017-.03-.015-.035-.015-.03-.01h-.063l-.034.01-.034.015c.027.034.053.068.077.102l.044.069.079.151.029.074.01.039.01.03.005.033v.028h-.263l.038.06c.03.04.06.078.092.116l.162.162.054.044.05.034a3.186 3.186 0 01-.127.011l-.128.014.043.04.113.083.063.043.064.04.063.034.059.02.054.014.044.01.014.005.01.01.004.005v.019l-.014.04-.004.028-.006.02v.014l.006.025.004.02.01.009.015.01.019.01.024.005.05.02.024.009.02.015.004.005v.01l-.004.005-.04.029-.019.02-.02.023v.02l-.004.02.01.053.17.058.04.01.039.015.029.015.025.015-.162.128.044.039.054.03.068.033c.05.018.098.034.148.05l.073.014.064.015h.058l-.055.04-.068.043-.073.04-.054.039.049.034c.148.076.3.147.455.21.27.11.546.206.825.293.062.015.123.03.185.049l.078.015-.158-.015a6.721 6.721 0 01-.292-.045l-.137-.03-.27-.077-.125-.044c-.338-.132-.668-.283-1.007-.41l.025-.015.069-.025.043-.01c.06-.017.118-.037.176-.058a6.602 6.602 0 01-.347-.063 4.2 4.2 0 00-.18-.054l-.035-.015-.03-.015-.024-.016-.016-.014v-.005l.006-.005.015-.005.014-.01.039-.015.17-.05.1-.034c-.142-.026-.284-.05-.426-.073l-.069-.016-.054-.018-.02-.01-.018-.016-.016-.009-.01-.016.015-.01.044-.01c.045-.007.091-.015.136-.024l.079-.01c.044-.012.088-.025.131-.04l.02-.014.02-.015-.077-.03-.05-.009-.049-.01-.224-.03-.058-.014-.055-.01-.107-.039-.05-.025-.04-.028-.04-.035-.028-.043.01-.006.019-.005h.025l.039.005.186.01.108.01h.136l.038-.005.03-.01.02-.01a7.96 7.96 0 01-.274-.117c-.06-.03-.12-.06-.181-.088l-.185-.097-.088-.055a6.42 6.42 0 01-.16-.117l-.07-.058-.03-.034-.03-.03-.018-.029-.02-.035-.02-.028-.011-.034-.008-.063h.033l.039.005.04.015.038.015.078.049.088.049.039.024.043.023.044.02.039.015.043.01.04.005h.044l.038-.015-.115-.089c-.096-.08-.19-.16-.284-.242a7.77 7.77 0 01-.445-.46l-.062-.084-.064-.078c-.036-.05-.07-.1-.104-.152l-.008-.02v-.033l.004-.015.005-.014.015-.01.014-.015.016-.01.018-.006.02-.004h.04l.023.004.021.005.02.015c.105.105.209.21.311.318.113.109.23.214.352.313l.112.072.058.03.054.02-.038-.025-.102-.102a10.32 10.32 0 01-.362-.444 9.8 9.8 0 01-.152-.216c-.044-.07-.09-.14-.137-.21a4.69 4.69 0 01-.107-.185 4.61 4.61 0 00-.063-.151l-.006-.024v-.04l.006-.014.019-.03.01-.01.016-.01.063-.02h.068l.02.005.014.005.02.01.054.05.127.161c.1.153.204.303.313.45l.115.146.064.063.069.059a11.836 11.836 0 01-.224-.448c-.03-.07-.06-.14-.088-.21l-.04-.108a3.93 3.93 0 00-.068-.22l-.024-.108-.018-.11-.01-.101-.005-.097.005-.05.006-.043.005-.045.01-.044.009-.016.005-.014.015-.016.01-.009.033-.015.035-.009h.034l.029.006.014.003.01.006.006.01.005.014c.084.273.152.55.225.827.028.078.057.154.088.23l.034.072.04.069.043.068-.029-.142a5.375 5.375 0 00-.039-.243 7.475 7.475 0 01-.024-.283l.01-.127.01-.05.015-.038.02-.03.01-.01.014-.01.014-.005h.044l.04.015.038.02.069.307c.025.093.052.187.083.278.05.14.104.278.161.415l.069.142.098.186.106.185.118.176.127.175.118.147c.082.092.164.184.249.274.088.086.178.17.269.253l.141.118c.13.101.263.197.401.288.108.064.217.126.327.186l.336.162c.171.067.343.13.518.185.17.045.344.084.518.117.234.037.474.06.715.07zM3.073 25.353s-.21.175-.282.087c-.115-.142.353-.852.353-1.103 0-.41-.275-.524-.612-.581-.228-.04-.597.016-.597.016.07.094.115.123.232.129a.492.492 0 00-.263.445c0 .352.146.498.146.897 0 .221-.182.502-.182.502.32-.032.48-.328.39-.566a.154.154 0 01.137.041c.023-.064-.014-.142-.063-.207.04-.02.069-.008.132.005-.006-.068-.047-.139-.146-.206.288.073.465-.127.465-.336 0-.16-.111-.274-.22-.274a.227.227 0 00-.117.036c-.02-.042-.01-.101.01-.145-.078.02-.129.068-.092.167a.197.197 0 00-.144.066.17.17 0 00.144.064c-.045.093.005.145.077.186 0 0-.046-.186.072-.186.053 0 .101.019.101.096 0 .067-.06.161-.196.156-.138-.006-.25-.095-.25-.313 0-.204.164-.304.378-.31.194-.007.34.098.34.298 0 .265-.385.872-.385 1.108 0 .178.16.276.316.276.203 0 .373-.2.373-.2l-.117-.148zm-.045-4.802c0-.442.399-.671.712-.671.42 0 .646.252.646.581a.982.982 0 01-.121.485l-.966 2.006a.596.596 0 00-.046.267c0 .18.175.327.359.331.166.005.348-.155.348-.338 0-.22-.114-.319-.232-.319-.145 0-.203.059-.203.161 0 .072.035.103.084.103.124 0 .09-.168.09-.168a.116.116 0 01.083.157.22.22 0 01.12.07.22.22 0 01-.12.066c.03.096-.01.143-.093.163a.171.171 0 00.011-.103c-.132.038-.335-.021-.335-.25 0-.228.158-.42.454-.372-.071-.032-.106-.1-.113-.179.053.023.113.025.113.025-.035-.06-.083-.113-.081-.233.055.025.106.07.176.041-.11-.216.025-.513.37-.585a.711.711 0 00-.188.466c0 .516.144.601.144.958a.53.53 0 01-.23.422v-.007c.1.027.165.078.202.144-.23.065-.565.064-.744-.006a.55.55 0 01-.393-.262.797.797 0 010-.635c.137-.285.782-1.653.983-2.084a.684.684 0 00.068-.293c0-.263-.24-.355-.378-.355-.164 0-.331.126-.331.28 0 .1.054.159.13.159.186 0 .175-.157.137-.257.115.053.183.144.164.242.066.009.128.04.185.104-.045.059-.1.101-.185.102.037.151-.064.215-.164.25.032-.11.052-.24-.136-.24-.138 0-.247-.023-.31-.113l-.016.591c-.007.178.238.173.393.12-.06.205-.18.316-.46.287a.22.22 0 01.141.214.567.567 0 01-.223.407l-.045-1.732z" fill="#FFCC4D"/><path d="M3.116 20.551c0-.443-.398-.671-.71-.671-.422 0-.647.252-.647.581 0 .189.035.306.121.485l.966 2.006c.035.084.05.175.045.267 0 .18-.175.327-.358.331-.167.005-.348-.155-.348-.338 0-.22.114-.319.232-.319.145 0 .203.059.203.161 0 .072-.035.102-.084.102-.124 0-.09-.167-.09-.167a.116.116 0 00-.083.157.22.22 0 00-.12.07.22.22 0 00.12.066c-.029.096.01.143.094.162a.171.171 0 01-.012-.103c.133.038.335-.021.335-.25 0-.228-.157-.419-.452-.372.07-.032.106-.1.112-.179a.375.375 0 01-.112.025c.034-.06.082-.113.08-.234-.055.026-.105.072-.176.042.11-.216-.025-.513-.37-.585a.711.711 0 01.188.466c0 .516-.143.601-.143.958 0 .15.077.312.229.422v-.006a.306.306 0 00-.202.143c.23.065.565.064.744-.006a.55.55 0 00.394-.262.798.798 0 000-.635c-.137-.285-.782-1.653-.983-2.084a.685.685 0 01-.069-.293c0-.263.241-.355.378-.355.165 0 .332.126.332.28 0 .1-.054.16-.13.16-.187 0-.175-.158-.139-.258-.114.053-.182.144-.163.242a.3.3 0 00-.185.104c.045.059.1.101.185.102-.038.151.064.215.163.25-.03-.11-.051-.24.138-.24.138 0 .246-.023.31-.113l.015.591c.008.178-.238.173-.393.12.058.204.18.315.458.286a.22.22 0 00-.14.215c0 .167.134.35.223.406l.044-1.73zm-.043 4.802s.21.175.282.087c.114-.142-.353-.853-.353-1.103 0-.41.274-.524.612-.581.228-.04.598.016.598.016-.07.094-.115.123-.232.128a.493.493 0 01.263.446c0 .352-.146.497-.146.897 0 .221.181.502.181.502-.32-.032-.48-.328-.39-.566a.155.155 0 00-.136.041c-.023-.064.014-.142.063-.207-.04-.02-.07-.008-.132.005.006-.068.046-.139.145-.207-.288.074-.464-.126-.464-.335 0-.16.11-.274.22-.274.036 0 .087.015.116.036.02-.043.01-.101-.011-.145.08.02.13.068.094.167a.195.195 0 01.143.066.17.17 0 01-.143.064c.045.093-.005.145-.077.186 0 0 .046-.186-.072-.186-.054 0-.102.019-.102.096 0 .067.06.161.197.156.137-.006.248-.095.248-.313 0-.204-.163-.304-.377-.31-.194-.007-.34.098-.34.298 0 .265.384.871.384 1.108 0 .178-.159.276-.315.276-.203 0-.373-.2-.373-.2l.117-.148zm-.045-12.574c0-.444.399-.671.712-.671.42 0 .646.252.646.582a.98.98 0 01-.121.483l-.966 2.007a.59.59 0 00-.046.266c0 .18.175.327.359.333.166.003.348-.157.348-.338 0-.22-.114-.32-.232-.32-.145 0-.203.06-.203.162 0 .07.035.102.084.102.124 0 .09-.167.09-.167a.115.115 0 01.083.154c.047.01.089.036.12.072a.227.227 0 01-.12.066c.03.096-.01.142-.093.163a.17.17 0 00.011-.103c-.132.037-.335-.022-.335-.25s.158-.419.454-.372c-.071-.033-.106-.102-.113-.178a.379.379 0 00.113.023c-.035-.06-.083-.113-.081-.233.055.025.106.071.176.042-.11-.217.025-.515.37-.585a.714.714 0 00-.188.466c0 .514.144.6.144.959a.53.53 0 01-.23.421v-.006a.308.308 0 01.2.143c-.23.066-.565.064-.743-.006a.553.553 0 01-.394-.262.793.793 0 010-.633c.137-.287.782-1.655.983-2.086a.7.7 0 00.068-.293c0-.263-.24-.356-.377-.356-.165 0-.332.126-.332.28 0 .1.054.16.13.16.187 0 .175-.159.138-.257.114.051.182.144.163.241.066.01.128.04.185.105-.045.057-.1.1-.185.102.038.152-.064.216-.163.25.03-.11.051-.238-.137-.238-.138 0-.246-.024-.31-.113l-.016.591c-.007.177.238.173.393.12-.057.204-.177.314-.457.286a.22.22 0 01.14.215.565.565 0 01-.223.405l-.045-1.731z" fill="#FFCC4D"/><path d="M3.116 12.78c0-.445-.398-.672-.71-.672-.422 0-.647.252-.647.582a.98.98 0 00.121.483l.966 2.007c.034.07.045.15.045.266 0 .18-.175.327-.358.333-.167.003-.348-.157-.348-.338 0-.22.114-.32.232-.32.145 0 .203.06.203.162 0 .07-.035.102-.084.102-.124 0-.09-.167-.09-.167a.113.113 0 00-.092.105c0 .017.002.034.009.05a.223.223 0 00-.12.07.227.227 0 00.12.067c-.029.096.01.142.093.163a.17.17 0 01-.012-.103c.133.037.336-.022.336-.25s-.158-.419-.453-.372c.07-.033.106-.102.112-.178a.375.375 0 01-.112.023c.034-.06.082-.113.08-.233-.055.025-.105.071-.176.042.11-.217-.025-.515-.37-.585a.714.714 0 01.188.466c0 .514-.143.6-.143.959 0 .15.077.31.23.421v-.006c-.1.027-.164.075-.2.143.23.066.564.064.743-.006a.553.553 0 00.394-.262.792.792 0 000-.633c-.137-.287-.782-1.655-.983-2.086a.683.683 0 01-.069-.292c0-.263.241-.356.378-.356.165 0 .332.126.332.28 0 .1-.055.16-.131.16-.186 0-.174-.159-.138-.258-.114.052-.182.144-.163.242a.293.293 0 00-.185.105c.045.057.1.1.185.101-.038.153.064.216.163.251-.03-.11-.051-.238.138-.238.138 0 .246-.024.31-.113l.014.59c.008.176-.238.172-.393.119.058.204.18.314.458.287a.22.22 0 00-.14.215c0 .166.134.35.223.405l.044-1.731z" fill="#FFCC4D"/><path d="M3.116 11.448c0 .444-.398.672-.71.672-.422 0-.647-.252-.647-.583 0-.187.035-.304.121-.484l.966-2.007a.592.592 0 00.045-.266c0-.18-.175-.327-.358-.331-.167-.004-.348.155-.348.338 0 .221.114.319.232.319.145 0 .203-.06.203-.162 0-.071-.035-.101-.084-.101-.124 0-.09.167-.09.167a.115.115 0 01-.083-.156.21.21 0 01-.12-.07.231.231 0 01.12-.066c-.029-.096.01-.142.094-.162a.17.17 0 00-.012.103c.133-.038.335.023.335.25s-.157.418-.452.371c.07.034.106.102.112.179a.409.409 0 00-.112-.023c.034.06.082.112.08.232-.055-.024-.105-.07-.176-.041.11.217-.025.514-.37.585a.717.717 0 00.188-.466c0-.514-.143-.601-.143-.958a.53.53 0 01.229-.422v.006a.306.306 0 01-.2-.144c.23-.065.564-.064.743.007a.551.551 0 01.394.263.792.792 0 010 .633c-.137.286-.782 1.654-.983 2.084a.68.68 0 00-.069.293c0 .264.241.355.378.355.165 0 .332-.125.332-.28 0-.1-.055-.16-.131-.16-.186 0-.174.157-.138.257-.114-.052-.182-.144-.163-.242a.297.297 0 01-.185-.105c.045-.057.1-.1.185-.101-.038-.151.064-.216.163-.252-.03.111-.051.24.138.24.138 0 .246.023.31.113l.015-.592c.007-.177-.238-.171-.393-.119.058-.204.18-.315.458-.287a.22.22 0 01-.14-.215c0-.166.134-.351.223-.405l.043 1.733zm0 7.772c0 .444-.398.672-.71.672-.422 0-.647-.252-.647-.582a.978.978 0 01.121-.483l.966-2.008a.592.592 0 00.045-.265c0-.18-.175-.327-.358-.332-.167-.004-.348.156-.348.337 0 .22.114.32.232.32.145 0 .203-.06.203-.163 0-.07-.035-.1-.084-.1-.124 0-.09.167-.09.167a.116.116 0 01-.083-.155.211.211 0 01-.12-.072.225.225 0 01.12-.065c-.029-.097.01-.143.093-.164a.17.17 0 00-.012.103c.133-.037.336.022.336.25 0 .227-.158.418-.453.372.07.034.106.102.112.18-.053-.021-.112-.025-.112-.025.034.06.082.114.08.233-.055-.025-.105-.071-.176-.042.11.216-.025.516-.37.585a.713.713 0 00.188-.466c0-.513-.143-.6-.143-.958 0-.15.077-.312.23-.421v.005c-.1-.026-.164-.075-.2-.143.23-.065.564-.064.743.007a.554.554 0 01.394.262.793.793 0 010 .633c-.137.286-.782 1.654-.983 2.085a.677.677 0 00-.069.293c0 .263.241.355.378.355.165 0 .332-.126.332-.281 0-.097-.055-.158-.131-.158-.186 0-.174.158-.138.256-.114-.051-.182-.145-.163-.241a.291.291 0 01-.185-.104.24.24 0 01.185-.103c-.038-.15.064-.214.163-.25-.03.112-.051.24.138.24.138 0 .246.023.31.114l.015-.593c.007-.175-.238-.171-.393-.119.058-.203.18-.313.458-.286a.22.22 0 01-.14-.215c0-.166.134-.35.223-.405l.043 1.73z" fill="#FFCC4D"/><path d="M3.028 19.22c0 .444.399.672.712.672.42 0 .646-.252.646-.582a.977.977 0 00-.121-.483l-.966-2.007a.59.59 0 01-.046-.266c0-.18.175-.327.359-.332.166-.004.348.156.348.337 0 .22-.114.32-.232.32-.145 0-.203-.06-.203-.163 0-.07.035-.1.084-.1.124 0 .09.167.09.167a.116.116 0 00.083-.155.212.212 0 00.12-.072.225.225 0 00-.12-.065c.03-.097-.01-.143-.093-.164a.17.17 0 01.011.103c-.132-.037-.335.023-.335.25 0 .228.158.418.454.372-.071.034-.106.102-.113.18.053-.021.113-.025.113-.025-.035.06-.083.114-.081.233.055-.025.106-.071.176-.042-.11.216.025.516.37.585a.713.713 0 01-.188-.466c0-.512.144-.6.144-.958a.528.528 0 00-.23-.421v.005A.303.303 0 004.213 16c-.23-.065-.565-.064-.744.007a.553.553 0 00-.393.262.793.793 0 000 .633c.137.287.782 1.655.983 2.086.042.09.068.186.068.292 0 .263-.24.355-.378.355-.164 0-.331-.125-.331-.281 0-.097.054-.157.13-.157.186 0 .175.157.137.256.115-.052.183-.145.164-.242a.287.287 0 00.185-.104.242.242 0 00-.185-.102c.037-.152-.064-.215-.164-.25.032.11.052.239-.136.239-.138 0-.247.023-.31.114l-.016-.592c-.007-.176.238-.172.393-.12-.06-.203-.18-.313-.46-.286a.22.22 0 00.141-.215.567.567 0 00-.223-.405l-.045 1.732zm.045-12.572s.21-.177.282-.089c.114.143-.353.853-.353 1.104 0 .41.274.522.612.58.228.04.598-.015.598-.015-.072-.094-.116-.121-.233-.128a.489.489 0 00.263-.444c0-.354-.146-.5-.146-.898 0-.221.181-.503.181-.503-.32.033-.48.329-.389.566a.154.154 0 01-.136-.041c-.023.065.014.142.063.208-.04.02-.07.008-.132-.006.006.069.046.14.145.207-.288-.074-.465.127-.465.337 0 .16.11.272.22.272a.22.22 0 00.117-.036c.02.043.01.102-.012.146.08-.02.13-.069.094-.168a.207.207 0 00.143-.065.174.174 0 00-.144-.065c.045-.093-.005-.144-.077-.185 0 0 .046.185-.072.185-.053 0-.101-.018-.101-.095 0-.068.06-.162.196-.156.137.005.248.094.248.314 0 .202-.163.301-.377.308-.193.006-.338-.1-.338-.298 0-.266.384-.87.384-1.108 0-.178-.16-.277-.316-.277-.203 0-.373.2-.373.2l.118.15z" fill="#FFCC4D"/><path d="M3.073 6.648s-.21-.177-.282-.089c-.115.144.353.854.353 1.105 0 .41-.275.522-.612.58-.228.04-.597-.016-.597-.016.07-.094.115-.121.232-.128a.488.488 0 01-.264-.444c0-.354.146-.5.146-.898 0-.221-.181-.503-.181-.503.32.033.48.329.389.566a.157.157 0 00.137-.041c.023.065-.014.142-.063.208.039.02.068.008.132-.006-.006.069-.047.14-.146.207.288-.074.465.127.465.337 0 .16-.11.272-.22.272a.22.22 0 01-.117-.036c-.02.044-.009.102.012.146-.08-.02-.129-.069-.093-.167a.204.204 0 01-.144-.065.172.172 0 01.144-.066c-.045-.093.005-.144.077-.185 0 0-.046.185.072.185.053 0 .101-.018.101-.095 0-.068-.06-.162-.196-.156-.138.005-.25.094-.25.313 0 .202.164.301.378.308.194.006.34-.098.34-.298 0-.266-.385-.87-.385-1.108 0-.178.16-.277.316-.277.203 0 .373.2.373.2l-.117.151zm-.045 4.8c0 .444.399.672.712.672.42 0 .646-.252.646-.583a.986.986 0 00-.121-.484l-.966-2.007a.596.596 0 01-.045-.265c0-.18.175-.327.358-.331.167-.004.349.155.349.338 0 .22-.114.319-.232.319-.145 0-.203-.06-.203-.162 0-.071.035-.101.084-.101.124 0 .09.167.09.167a.115.115 0 00.083-.156.215.215 0 00.12-.071.231.231 0 00-.122-.066c.03-.096-.01-.142-.093-.162a.17.17 0 01.012.103c-.133-.038-.336.022-.336.25 0 .227.158.418.454.371-.071.034-.106.102-.113.179a.412.412 0 01.113-.023c-.035.06-.083.112-.081.232.055-.024.106-.07.176-.041-.11.217.025.514.37.585a.718.718 0 01-.188-.466c0-.514.144-.601.144-.958a.53.53 0 00-.23-.422v.006a.31.31 0 00.203-.144c-.232-.064-.567-.064-.746.008a.547.547 0 00-.393.262.792.792 0 000 .633c.137.286.782 1.654.983 2.084a.7.7 0 01.068.293c0 .264-.24.355-.377.355-.165 0-.332-.125-.332-.28 0-.1.054-.16.13-.16.187 0 .175.158.138.257.114-.051.182-.144.163-.242a.292.292 0 00.185-.105c-.045-.056-.1-.1-.185-.101.038-.151-.064-.216-.163-.252.03.112.051.24-.137.24-.138 0-.246.024-.31.113l-.016-.592c-.007-.176.238-.171.393-.119-.057-.202-.177-.313-.457-.285a.22.22 0 00.14-.215.565.565 0 00-.223-.406l-.045 1.732z" fill="#FFCC4D"/></g><defs><clipPath id="clip0_2001_367"><path fill="#fff" d="M0 0h32v32H0z"/></clipPath></defs></svg>