<svg width="423" height="614" fill="none" xmlns="http://www.w3.org/2000/svg"><mask id="a" fill="#fff"><path d="M64.337 17.886l10.707 12.26 5.413-.48 11.067 8.775 1.323 15.747 8.661 7.935-2.526 7.212 9.503 1.203 4.571 12.862 12.63-1.443 3.85 3.967 4.811-9.737 10.346-2.885 7.819 8.294 21.291-12.5 19.367-2.887 5.774-6.971 2.887 12.742 17.803 7.453 4.09 13.223-2.165 8.535 19.487-5.049 2.647 10.939 10.826-1.202 6.496 7.092-5.173 24.523 26.224 20.555 7.939 31.495 18.285 32.097.12 13.222-11.909 21.758.602 8.535 10.465 21.998 1.323 13.344 23.697 9.737 8.782 13.703-.481 9.136-15.638 18.632-12.751 7.453-6.616-.24 1.805 3.366-3.008.12v-3.606l-6.135 4.448 4.932 18.632-.963 11.3-13.352 17.189-17.562 12.382-3.609 8.295-8.3 3.365-17.202 16.83-21.412 41.472-13.713-1.202-3.128 5.529-7.097 2.645-7.819-4.087-3.007 2.404 2.045 14.425-7.579 7.453-2.406 10.699 8.902 20.796-3.609 4.087-12.029 2.525-13.352 18.632-8.902 5.65-15.638-7.573-18.044 7.212-5.413-2.284 2.526-12.381-15.277 3.846-9.022 6.972-11.307 1.203-3.97-.962-4.45 5.649-1.685 14.065-6.496 9.497-16.36 6.13-6.495-4.928.24-3.607-13.953-5.409-8.902-10.338-11.428-3.246-2.887-6.13.241-7.093 8.54-2.644 9.384-15.988-1.203-6.611-7.699 2.644-8.06-8.174 11.91-31.615 19.005-4.809 12.751-15.987 7.94-1.563 15.998-11.3-1.323-12.742 20.33-13.223 17.803-17.911-9.503-10.097L98.5 417.1l7.217-4.327 3.248-7.574 5.774-1.201-2.526-7.694-8.661-3.967-6.616-12.261-5.534.961-3.007-5.409 2.045-10.097 10.104-5.29-.721-6.37-8.18-6.492 6.736-3.246-2.526-6.13-10.826-16.349-7.699 7.573-1.323-4.327 6.616-19.113-3.128-10.459 10.707-10.217 8.059-18.392 16.721-4.087-5.654-24.884-10.947-1.322 2.887-18.753 11.909-13.824-3.368-21.397-2.526-3.005-14.315 6.732-5.293-3.367-4.812-12.141-10.585 3.126-6.015 11.179-5.654 2.404-15.397-8.775-3.007-5.168 14.435-7.453 4.09-35.944 3.368-8.654 8.3-3.847 3.128-11.179-9.744-8.775-8.902-17.19-6.615-38.347.24-9.377 8.54-4.087 5.293-10.698z"/></mask><path d="M64.337 17.886l10.707 12.26 5.413-.48 11.067 8.775 1.323 15.747 8.661 7.935-2.526 7.212 9.503 1.203 4.571 12.862 12.63-1.443 3.85 3.967 4.811-9.737 10.346-2.885 7.819 8.294 21.291-12.5 19.367-2.887 5.774-6.971 2.887 12.742 17.803 7.453 4.09 13.223-2.165 8.535 19.487-5.049 2.647 10.939 10.826-1.202 6.496 7.092-5.173 24.523 26.224 20.555 7.939 31.495 18.285 32.097.12 13.222-11.909 21.758.602 8.535 10.465 21.998 1.323 13.344 23.697 9.737 8.782 13.703-.481 9.136-15.638 18.632-12.751 7.453-6.616-.24 1.805 3.366-3.008.12v-3.606l-6.135 4.448 4.932 18.632-.963 11.3-13.352 17.189-17.562 12.382-3.609 8.295-8.3 3.365-17.202 16.83-21.412 41.472-13.713-1.202-3.128 5.529-7.097 2.645-7.819-4.087-3.007 2.404 2.045 14.425-7.579 7.453-2.406 10.699 8.902 20.796-3.609 4.087-12.029 2.525-13.352 18.632-8.902 5.65-15.638-7.573-18.044 7.212-5.413-2.284 2.526-12.381-15.277 3.846-9.022 6.972-11.307 1.203-3.97-.962-4.45 5.649-1.685 14.065-6.496 9.497-16.36 6.13-6.495-4.928.24-3.607-13.953-5.409-8.902-10.338-11.428-3.246-2.887-6.13.241-7.093 8.54-2.644 9.384-15.988-1.203-6.611-7.699 2.644-8.06-8.174 11.91-31.615 19.005-4.809 12.751-15.987 7.94-1.563 15.998-11.3-1.323-12.742 20.33-13.223 17.803-17.911-9.503-10.097L98.5 417.1l7.217-4.327 3.248-7.574 5.774-1.201-2.526-7.694-8.661-3.967-6.616-12.261-5.534.961-3.007-5.409 2.045-10.097 10.104-5.29-.721-6.37-8.18-6.492 6.736-3.246-2.526-6.13-10.826-16.349-7.699 7.573-1.323-4.327 6.616-19.113-3.128-10.459 10.707-10.217 8.059-18.392 16.721-4.087-5.654-24.884-10.947-1.322 2.887-18.753 11.909-13.824-3.368-21.397-2.526-3.005-14.315 6.732-5.293-3.367-4.812-12.141-10.585 3.126-6.015 11.179-5.654 2.404-15.397-8.775-3.007-5.168 14.435-7.453 4.09-35.944 3.368-8.654 8.3-3.847 3.128-11.179-9.744-8.775-8.902-17.19-6.615-38.347.24-9.377 8.54-4.087 5.293-10.698z" fill="url(#paint0_linear_14_757)" stroke="#fff" stroke-width="1.356" mask="url(#a)"/><g filter="url(#filter0_d_14_757)" clip-path="url(#clip0_14_757)"><path d="M276.808 222.238a16.144 16.144 0 00-11.402 4.735 16.173 16.173 0 00-4.731 11.413c0 13.818 14.666 24.253 15.291 24.69a1.468 1.468 0 001.683 0c.625-.437 15.291-10.872 15.291-24.69a16.172 16.172 0 00-4.73-11.413 16.146 16.146 0 00-11.402-4.735zm0 10.276a5.868 5.868 0 015.753 7.018 5.871 5.871 0 01-4.609 4.613 5.866 5.866 0 01-6.022-2.497 5.872 5.872 0 014.878-9.134z" fill="#0073B9"/></g><g filter="url(#filter1_d_14_757)" clip-path="url(#clip1_14_757)"><path d="M291.278 234.5a16.142 16.142 0 00-11.402 4.735 16.176 16.176 0 00-4.73 11.413c0 13.817 14.666 24.253 15.291 24.69a1.464 1.464 0 001.683 0c.625-.437 15.291-10.873 15.291-24.69a16.176 16.176 0 00-4.73-11.413 16.142 16.142 0 00-11.403-4.735zm0 10.276a5.865 5.865 0 015.754 7.017 5.874 5.874 0 01-4.609 4.614 5.863 5.863 0 01-6.022-2.497 5.874 5.874 0 014.877-9.134z" fill="#0073B9"/></g><g filter="url(#filter2_d_14_757)" clip-path="url(#clip2_14_757)"><path d="M181.773 371.254a16.138 16.138 0 00-11.403 4.735 16.174 16.174 0 00-4.73 11.413c0 13.817 14.666 24.253 15.291 24.69a1.465 1.465 0 001.683 0c.625-.437 15.291-10.873 15.291-24.69a16.174 16.174 0 00-4.73-11.413 16.138 16.138 0 00-11.402-4.735zm0 10.276a5.864 5.864 0 015.419 3.625 5.874 5.874 0 01-4.275 8.006 5.868 5.868 0 01-7.011-5.759c0-1.558.618-3.051 1.718-4.152a5.864 5.864 0 014.149-1.72z" fill="#0073B9"/></g><g filter="url(#filter3_d_14_757)" clip-path="url(#clip3_14_757)"><path d="M191.157 392.136a16.146 16.146 0 00-11.402 4.735 16.178 16.178 0 00-4.73 11.413c0 13.818 14.666 24.254 15.291 24.69a1.463 1.463 0 001.683 0c.625-.436 15.291-10.872 15.291-24.69a16.174 16.174 0 00-4.731-11.413 16.144 16.144 0 00-11.402-4.735zm0 10.276a5.866 5.866 0 015.42 3.625 5.881 5.881 0 01-1.271 6.4 5.871 5.871 0 01-6.394 1.273 5.87 5.87 0 01-3.621-5.426c0-1.557.618-3.05 1.718-4.152a5.864 5.864 0 014.148-1.72z" fill="#0073B9"/></g><g filter="url(#filter4_d_14_757)" clip-path="url(#clip4_14_757)"><path d="M338.206 295.572a16.144 16.144 0 00-11.402 4.735 16.177 16.177 0 00-4.731 11.413c0 13.818 14.667 24.253 15.292 24.69a1.463 1.463 0 001.683 0c.625-.437 15.291-10.872 15.291-24.69a16.173 16.173 0 00-4.731-11.413 16.144 16.144 0 00-11.402-4.735zm0 10.276a5.868 5.868 0 015.754 7.018 5.873 5.873 0 01-4.609 4.613 5.863 5.863 0 01-6.023-2.497 5.879 5.879 0 01.73-7.414 5.864 5.864 0 014.148-1.72z" fill="#0073B9"/></g><g filter="url(#filter5_d_14_757)" clip-path="url(#clip5_14_757)"><path d="M276.153 250.16a16.146 16.146 0 00-11.402 4.735 16.176 16.176 0 00-4.73 11.413c0 13.818 14.666 24.253 15.291 24.69a1.465 1.465 0 001.683 0c.625-.437 15.291-10.872 15.291-24.69a16.176 16.176 0 00-4.73-11.413 16.147 16.147 0 00-11.403-4.735zm0 10.276a5.865 5.865 0 015.754 7.017 5.87 5.87 0 01-4.609 4.614 5.863 5.863 0 01-6.022-2.497 5.872 5.872 0 014.877-9.134z" fill="#0073B9"/></g><defs><clipPath id="clip0_14_757"><path fill="#fff" transform="translate(253.342 219.302)" d="M0 0h46.931v46.976H0z"/></clipPath><clipPath id="clip1_14_757"><path fill="#fff" transform="translate(267.813 231.564)" d="M0 0h46.931v46.976H0z"/></clipPath><clipPath id="clip2_14_757"><path fill="#fff" transform="translate(158.307 368.317)" d="M0 0h46.931v46.976H0z"/></clipPath><clipPath id="clip3_14_757"><path fill="#fff" transform="translate(167.692 389.2)" d="M0 0h46.931v46.976H0z"/></clipPath><clipPath id="clip4_14_757"><path fill="#fff" transform="translate(314.741 292.636)" d="M0 0h46.931v46.976H0z"/></clipPath><clipPath id="clip5_14_757"><path fill="#fff" transform="translate(252.688 247.224)" d="M0 0h46.931v46.976H0z"/></clipPath><filter id="filter0_d_14_757" x="258.742" y="222.238" width="36.132" height="44.97" filterUnits="userSpaceOnUse" color-interpolation-filters="sRGB"><feFlood flood-opacity="0" result="BackgroundImageFix"/><feColorMatrix in="SourceAlpha" values="0 0 0 0 0 0 0 0 0 0 0 0 0 0 0 0 0 0 127 0" result="hardAlpha"/><feOffset dy="1.933"/><feGaussianBlur stdDeviation=".967"/><feComposite in2="hardAlpha" operator="out"/><feColorMatrix values="0 0 0 0 0 0 0 0 0 0 0 0 0 0 0 0 0 0 0.12 0"/><feBlend in2="BackgroundImageFix" result="effect1_dropShadow_14_757"/><feBlend in="SourceGraphic" in2="effect1_dropShadow_14_757" result="shape"/></filter><filter id="filter1_d_14_757" x="273.213" y="234.5" width="36.132" height="44.97" filterUnits="userSpaceOnUse" color-interpolation-filters="sRGB"><feFlood flood-opacity="0" result="BackgroundImageFix"/><feColorMatrix in="SourceAlpha" values="0 0 0 0 0 0 0 0 0 0 0 0 0 0 0 0 0 0 127 0" result="hardAlpha"/><feOffset dy="1.933"/><feGaussianBlur stdDeviation=".967"/><feComposite in2="hardAlpha" operator="out"/><feColorMatrix values="0 0 0 0 0 0 0 0 0 0 0 0 0 0 0 0 0 0 0.12 0"/><feBlend in2="BackgroundImageFix" result="effect1_dropShadow_14_757"/><feBlend in="SourceGraphic" in2="effect1_dropShadow_14_757" result="shape"/></filter><filter id="filter2_d_14_757" x="163.707" y="371.254" width="36.132" height="44.97" filterUnits="userSpaceOnUse" color-interpolation-filters="sRGB"><feFlood flood-opacity="0" result="BackgroundImageFix"/><feColorMatrix in="SourceAlpha" values="0 0 0 0 0 0 0 0 0 0 0 0 0 0 0 0 0 0 127 0" result="hardAlpha"/><feOffset dy="1.933"/><feGaussianBlur stdDeviation=".967"/><feComposite in2="hardAlpha" operator="out"/><feColorMatrix values="0 0 0 0 0 0 0 0 0 0 0 0 0 0 0 0 0 0 0.12 0"/><feBlend in2="BackgroundImageFix" result="effect1_dropShadow_14_757"/><feBlend in="SourceGraphic" in2="effect1_dropShadow_14_757" result="shape"/></filter><filter id="filter3_d_14_757" x="173.092" y="392.136" width="36.132" height="44.97" filterUnits="userSpaceOnUse" color-interpolation-filters="sRGB"><feFlood flood-opacity="0" result="BackgroundImageFix"/><feColorMatrix in="SourceAlpha" values="0 0 0 0 0 0 0 0 0 0 0 0 0 0 0 0 0 0 127 0" result="hardAlpha"/><feOffset dy="1.933"/><feGaussianBlur stdDeviation=".967"/><feComposite in2="hardAlpha" operator="out"/><feColorMatrix values="0 0 0 0 0 0 0 0 0 0 0 0 0 0 0 0 0 0 0.12 0"/><feBlend in2="BackgroundImageFix" result="effect1_dropShadow_14_757"/><feBlend in="SourceGraphic" in2="effect1_dropShadow_14_757" result="shape"/></filter><filter id="filter4_d_14_757" x="320.14" y="295.572" width="36.132" height="44.97" filterUnits="userSpaceOnUse" color-interpolation-filters="sRGB"><feFlood flood-opacity="0" result="BackgroundImageFix"/><feColorMatrix in="SourceAlpha" values="0 0 0 0 0 0 0 0 0 0 0 0 0 0 0 0 0 0 127 0" result="hardAlpha"/><feOffset dy="1.933"/><feGaussianBlur stdDeviation=".967"/><feComposite in2="hardAlpha" operator="out"/><feColorMatrix values="0 0 0 0 0 0 0 0 0 0 0 0 0 0 0 0 0 0 0.12 0"/><feBlend in2="BackgroundImageFix" result="effect1_dropShadow_14_757"/><feBlend in="SourceGraphic" in2="effect1_dropShadow_14_757" result="shape"/></filter><filter id="filter5_d_14_757" x="258.088" y="250.16" width="36.132" height="44.97" filterUnits="userSpaceOnUse" color-interpolation-filters="sRGB"><feFlood flood-opacity="0" result="BackgroundImageFix"/><feColorMatrix in="SourceAlpha" values="0 0 0 0 0 0 0 0 0 0 0 0 0 0 0 0 0 0 127 0" result="hardAlpha"/><feOffset dy="1.933"/><feGaussianBlur stdDeviation=".967"/><feComposite in2="hardAlpha" operator="out"/><feColorMatrix values="0 0 0 0 0 0 0 0 0 0 0 0 0 0 0 0 0 0 0.12 0"/><feBlend in2="BackgroundImageFix" result="effect1_dropShadow_14_757"/><feBlend in="SourceGraphic" in2="effect1_dropShadow_14_757" result="shape"/></filter><linearGradient id="paint0_linear_14_757" x1="171.097" y1="17.886" x2="171.097" y2="613.642" gradientUnits="userSpaceOnUse"><stop stop-color="#73C2E2"/><stop offset="1" stop-color="#2CA5D1"/></linearGradient></defs></svg>