<svg width="337" height="316" fill="none" xmlns="http://www.w3.org/2000/svg"><path d="M-.006 233.112l3.483 4.049L34.631 220h5.805l9.482 9.063 1.161-1.543 3.87-.385 5.805-5.399 1.355-6.17 6.773-5.785 10.062.964 3.29-1.542h5.611l43.152-21.789 10.062-1.542 9.869-11.377 1.741-7.134 50.505-36.443 5.418-2.314 11.804-15.425 3.289-.771 5.612 2.121 8.514-4.435 2.322 2.699v1.736l-1.548 1.157.387 4.049 3.677 4.242 2.322 3.278 7.74 5.206-3.676 7.327 2.902 4.628v1.928l-3.87 6.941v7.327l-2.709 7.713 5.031 5.206-.58 3.857.967 1.349 2.516-.385 7.353 1.735 5.418 1.928 1.742.964 12.19 14.847 7.354 5.785 3.096-.771 1.935 6.17-7.934 4.435-5.612 5.013-40.636 13.111-35.024 26.995 1.935 5.977 2.129-.578 3.483 9.255 69.661 41.842 5.419-.579-1.161-4.82.774-1.928.387 1.928 14.899-3.471 1.548-1.157h3.097l1.548-.578-.387-3.857.774-1.542 1.548-.964 7.353 1.35.967-.965 1.742-7.327 5.805-7.52.968-5.977-1.548-3.085-2.129-.386-2.129-2.506-3.676-1.157-6.773-4.242.194-1.543-7.16-9.448-3.87-6.556-.968-5.591-1.161-3.471 2.129-2.892 3.87-1.157 2.129-3.085-1.162-1.543 1.936-3.085v-1.928l-3.677-1.928-.581-5.592-1.354-3.857.387-3.856-1.161-5.399-.968-9.641-1.741-9.641v-1.349l9.095-3.857.967-1.349-3.29-11.184h-1.935l-4.837-10.412-2.129-5.399 1.548-1.543 1.742-.385h1.548l3.289.385 7.741-1.542 5.224-1.928 7.353-3.471 3.484-.964 1.741-.386 3.677-1.35.774-1.156v-2.314l-1.161-3.471.387-1.928 1.548-.964v-1.35l-.774-1.35.774-1.157h1.935l.967-.964.387-1.928-.387-2.121-3.676-4.242-2.322-5.206-1.161-1.157h-1.935l-1.935-.964-3.871-1.35-7.546.772-1.935-.386-.968-1.35 1.355-1.542.387-1.543-1.355-.964-3.096 1.928-9.288-6.941-3.483-1.157-3.677-1.736-8.708-7.712-3.676-4.435-6.966-6.363 1.354-1.543.581-1.542-.581-1.736-1.161-1.35-1.548-1.542-3.483-1.542-11.03-4.242-8.707-3.664-11.417-3.663-3.29-1.543-5.031-5.592-3.87-1.157-1.742-.578-2.902-2.7-9.482-9.64-1.741-.965-1.935-.578-15.481-.578-15.48-.579-19.544-.771-5.225.771-3.483-2.7-3.29-3.47-1.741.771-3.29-2.12-1.548-.772-1.741-3.857-3.87-9.062h-1.742L119.58 31.231l-3.483 8.099-.968 5.784-.774 3.857-.774 1.928-2.902 6.941-4.838 10.412-1.935-.578-1.935-.386h-1.935l-2.129-.385-.774 1.35-.387 1.927-1.16-1.542-1.742-.964-1.742-.771-1.741-.772-1.935-.578-2.129-.579c-.58-.064-1.742-.23-1.742-.385 0-.154-1.29-.193-1.934-.193h-.194l-1.548-.386-9.482-1.928-1.935-.386-1.16 1.736-.968 1.542-1.161 1.736-1.162 1.542-1.354 1.35-1.548 1.157-1.742.964-1.741.771-1.742.386-1.935.578-1.354 1.35-1.355 1.543-1.16 1.542-.775 1.736-2.128.192-1.355-.964-1.935-.964h-3.483l-1.935.579-1.935.578-1.355 1.157-1.16 2.314 1.547 12.726 8.514 23.331 6.58 21.403 10.643 26.609 2.709 24.873-65.018 41.649z" fill="url(#paint0_linear_14_750)"/><g filter="url(#filter0_d_14_750)"><path d="M236.212 52.604a17.744 17.744 0 00-12.506 5.172 17.633 17.633 0 00-5.189 12.465c0 15.093 16.087 26.49 16.772 26.968a1.614 1.614 0 001.846 0c.686-.477 16.772-11.875 16.772-26.968a17.628 17.628 0 00-5.188-12.465 17.746 17.746 0 00-12.507-5.172zm0 11.224c1.273 0 2.517.376 3.575 1.08a6.42 6.42 0 012.37 2.88 6.397 6.397 0 01-1.395 6.989 6.454 6.454 0 01-7.012 1.39 6.43 6.43 0 01-2.888-2.362 6.399 6.399 0 01.8-8.099 6.447 6.447 0 014.55-1.878z" fill="#0073B9"/></g><g filter="url(#filter1_d_14_750)"><path d="M135.548 97.635a17.744 17.744 0 00-12.506 5.172 17.635 17.635 0 00-5.189 12.466c0 15.092 16.087 26.49 16.772 26.967a1.613 1.613 0 001.846 0c.686-.477 16.772-11.875 16.772-26.967a17.63 17.63 0 00-5.188-12.466 17.746 17.746 0 00-12.507-5.172zm0 11.224c1.273 0 2.517.376 3.575 1.081a6.398 6.398 0 01.975 9.868 6.445 6.445 0 01-9.9-.972 6.4 6.4 0 01.8-8.098 6.446 6.446 0 014.55-1.879z" fill="#0073B9"/></g><g filter="url(#filter2_d_14_750)"><path d="M148.13 4.137a17.746 17.746 0 00-12.507 5.172 17.628 17.628 0 00-5.188 12.466c0 15.092 16.086 26.49 16.772 26.967a1.612 1.612 0 001.846 0c.685-.477 16.772-11.875 16.772-26.967a17.633 17.633 0 00-5.189-12.466 17.744 17.744 0 00-12.506-5.172zm0 11.224c1.272 0 2.516.376 3.575 1.081a6.417 6.417 0 012.369 2.878 6.389 6.389 0 01-1.394 6.99 6.455 6.455 0 01-7.013 1.39 6.433 6.433 0 01-2.887-2.362 6.4 6.4 0 01.8-8.098 6.445 6.445 0 014.55-1.879z" fill="#0073B9"/></g><g filter="url(#filter3_d_14_750)"><path d="M171.007 32.647a17.744 17.744 0 00-12.506 5.171 17.625 17.625 0 00-5.189 12.466c0 15.092 16.086 26.49 16.772 26.968a1.612 1.612 0 001.846 0c.686-.477 16.772-11.876 16.772-26.968a17.625 17.625 0 00-5.189-12.466 17.744 17.744 0 00-12.506-5.171zm0 11.224c1.273 0 2.517.376 3.575 1.08a6.42 6.42 0 012.37 2.879 6.397 6.397 0 01-1.395 6.99 6.443 6.443 0 01-7.012 1.39 6.429 6.429 0 01-2.888-2.363 6.4 6.4 0 01.8-8.098 6.445 6.445 0 014.55-1.879z" fill="#0073B9"/></g><defs><filter id="filter0_d_14_750" x="217.373" y="52.604" width="37.678" height="47.183" filterUnits="userSpaceOnUse" color-interpolation-filters="sRGB"><feFlood flood-opacity="0" result="BackgroundImageFix"/><feColorMatrix in="SourceAlpha" values="0 0 0 0 0 0 0 0 0 0 0 0 0 0 0 0 0 0 127 0" result="hardAlpha"/><feOffset dy="1.144"/><feGaussianBlur stdDeviation=".572"/><feComposite in2="hardAlpha" operator="out"/><feColorMatrix values="0 0 0 0 0 0 0 0 0 0 0 0 0 0 0 0 0 0 0.12 0"/><feBlend in2="BackgroundImageFix" result="effect1_dropShadow_14_750"/><feBlend in="SourceGraphic" in2="effect1_dropShadow_14_750" result="shape"/></filter><filter id="filter1_d_14_750" x="116.709" y="97.635" width="37.678" height="47.183" filterUnits="userSpaceOnUse" color-interpolation-filters="sRGB"><feFlood flood-opacity="0" result="BackgroundImageFix"/><feColorMatrix in="SourceAlpha" values="0 0 0 0 0 0 0 0 0 0 0 0 0 0 0 0 0 0 127 0" result="hardAlpha"/><feOffset dy="1.144"/><feGaussianBlur stdDeviation=".572"/><feComposite in2="hardAlpha" operator="out"/><feColorMatrix values="0 0 0 0 0 0 0 0 0 0 0 0 0 0 0 0 0 0 0.12 0"/><feBlend in2="BackgroundImageFix" result="effect1_dropShadow_14_750"/><feBlend in="SourceGraphic" in2="effect1_dropShadow_14_750" result="shape"/></filter><filter id="filter2_d_14_750" x="129.291" y="4.137" width="37.678" height="47.183" filterUnits="userSpaceOnUse" color-interpolation-filters="sRGB"><feFlood flood-opacity="0" result="BackgroundImageFix"/><feColorMatrix in="SourceAlpha" values="0 0 0 0 0 0 0 0 0 0 0 0 0 0 0 0 0 0 127 0" result="hardAlpha"/><feOffset dy="1.144"/><feGaussianBlur stdDeviation=".572"/><feComposite in2="hardAlpha" operator="out"/><feColorMatrix values="0 0 0 0 0 0 0 0 0 0 0 0 0 0 0 0 0 0 0.12 0"/><feBlend in2="BackgroundImageFix" result="effect1_dropShadow_14_750"/><feBlend in="SourceGraphic" in2="effect1_dropShadow_14_750" result="shape"/></filter><filter id="filter3_d_14_750" x="152.168" y="32.647" width="37.678" height="47.183" filterUnits="userSpaceOnUse" color-interpolation-filters="sRGB"><feFlood flood-opacity="0" result="BackgroundImageFix"/><feColorMatrix in="SourceAlpha" values="0 0 0 0 0 0 0 0 0 0 0 0 0 0 0 0 0 0 127 0" result="hardAlpha"/><feOffset dy="1.144"/><feGaussianBlur stdDeviation=".572"/><feComposite in2="hardAlpha" operator="out"/><feColorMatrix values="0 0 0 0 0 0 0 0 0 0 0 0 0 0 0 0 0 0 0.12 0"/><feBlend in2="BackgroundImageFix" result="effect1_dropShadow_14_750"/><feBlend in="SourceGraphic" in2="effect1_dropShadow_14_750" result="shape"/></filter><linearGradient id="paint0_linear_14_750" x1="168.15" y1="12.335" x2="168.15" y2="315.06" gradientUnits="userSpaceOnUse"><stop stop-color="#73C2E2"/><stop offset="1" stop-color="#2CA5D1"/></linearGradient></defs></svg>